<?xml version="1.0" encoding="UTF-8"?>
<!-- Created with Inkscape (http://www.inkscape.org/) -->
<svg width="3526.5" height="1875.5" version="1.1" viewBox="0 0 3526.5 1875.5" xml:space="preserve" xmlns="http://www.w3.org/2000/svg"><g transform="matrix(1.3333 0 0 -1.3333 -221.15 2245.4)"><path d="m471.51 281.21s-361.5 384.18-108.02 742.55c94.588 133.73 336.07 208.82 558.05 147.9 131.12-35.98 329.97-30.67 524.27 286.51 264.96 432.54 1364.9 235.86 1150.2-521.98-90.44-319.22 246.64-333.75 79.67-655.67l-2204.2 0.69" fill="#ebf3fa"/><path d="m2428.6 1050.8-787.42-658.75-414.29 352.93c-77.55-68.28-197.3-173.68-317.78-279.44-82.332-72.28-148.99-130.68-203.02-177.95l-376.29 0.44c104.35 88.84 524.5 458.05 807.56 707.57l86.55 76.29 418.8-356.78 614.71 514.27 171.18-178.58" fill="#d5e5fb"/><path d="m2157.8 1310.4 375.02-376.17 105.94 429.72z" fill="#d5e5fb"/><path d="m928.36 517.82c-1.401 34.44-4.42 64.41-8.033 85.3-5.761 33.31-10.946 52.47-11.006 52.67-0.759 2.93-11.72 14.79-36.092 14.42-24.371-0.36-22.06-15.91-22.06-15.91-2e-3 -0.52 0.067-1.01 0.175-1.38 0.235-0.8 22.606-81.92 21.637-186.65-0.013-1.47-0.178-4.01-0.074-5.7 1e-3 -0.01 56.478-1.46 56.491 0 1.97 9.15 1.009 34.51-1.038 57.25" fill="#b7d3f3"/><path d="m935.46 466.79c-0.017-1.46-0.787-2.63-1.727-2.63h-0.022c-0.939 0.02-1.687 1.19-1.698 2.63h-48.401c-0.017-1.46-0.788-2.63-1.727-2.63h-0.023c-0.956 0.02-1.715 1.23-1.704 2.7 0.281 29.98-1.428 57.98-4.015 82.69-6.435 61.62-18.329 102.8-18.498 103.37-0.107 0.37-0.174 0.86-0.174 1.38 0 0-2.312 15.54 22.057 15.91 24.375 0.37 35.337-11.49 36.096-14.42 0.045-0.15 2.981-11 6.884-30.51 1.293-6.46 2.688-13.87 4.122-22.16 3.611-20.89 6.631-50.86 8.032-85.3 2.046-22.74 2.767-41.88 0.798-51.03" fill="#d2e3fc"/><path d="m876.58 464.16h189.76s-4.42 17.88-114.31 15.22c-77.77-1.89-75.443-15.22-75.443-15.22" fill="#c5dcf8"/><g fill="#b7d3f3"><path d="m861.14 277.37c22.002 111.38 16.344 179.73 16.317 180.59-0.056 1.72 3.105 3.27 4.805 3.33 1.721 0.03 9.315 0.51 10.194-0.96 1.151-1.92 5.582-86.13-27.209-182.96h-4.107"/><path d="m1038.3 277.37c-22 111.38-16.34 179.73-16.31 180.59 0.05 1.72-3.11 3.27-4.81 3.33-1.72 0.03-9.31 0.51-10.19-0.96-1.15-1.92-5.59-86.13 27.21-182.96h4.1"/><path d="m1073.4 277.37c-22 111.38-16.34 179.73-16.31 180.59 0.05 1.72-3.11 3.27-4.81 3.33-1.72 0.03-9.31 0.51-10.19-0.96-1.15-1.92-5.58-86.13 27.21-182.96h4.1"/><path d="m896.49 277.37c22.002 111.38 16.345 179.73 16.317 180.59-0.055 1.72 3.105 3.27 4.805 3.33 1.722 0.03 9.316 0.51 10.194-0.96 1.152-1.92 5.582-86.13-27.209-182.96h-4.107"/><path d="m1066.4 458.45h-189.75c-2.138 0-3.887 1.75-3.887 3.89v2.55c0 2.14 1.749 3.89 3.887 3.89h189.75c2.14 0 3.89-1.75 3.89-3.89v-2.55c0-2.14-1.75-3.89-3.89-3.89"/></g><path d="m1059.8 629.82 63.07 13.66 3.72-9.05s-69.6-41.42-76.12-39.39 9.33 34.78 9.33 34.78" fill="#ffb27d"/><path d="m1002.4 344.54c-1.58-1.81-1.78-3.83-1-5.99 0-0.01 0.01-0.02 0.02-0.03 1.44-3.99 6.22-8.46 11.77-12.91 0.71-0.57 1.34-1.1 1.89-1.58 0.14-0.12 0.29-0.25 0.42-0.38 0.11-0.1 0.22-0.2 0.33-0.29 5.17-4.77 3.23-5.86 12.52-15.54 10.6-11.03 17.9-11.23 19.97-10.23 1.76 0.86-1.81 6.71-5.76 13.28-0.19 0.32-0.38 0.64-0.58 0.96-0.52 0.88-1.05 1.76-1.57 2.64-4.63 7.91-3.44 11.63-2.35 23.4 0.9 9.57 14.89 53.46 14.89 53.46l-20.31 3.5s-6.12-34.95-12.86-40.33c-3.6-2.87-7.64-2.91-11.1-5.03-0.25-0.15-0.49-0.3-0.72-0.46-1.97-1.3-3.97-2.65-5.56-4.47" fill="#ffb27d"/><path d="m1002.4 344.54c-1.58-1.81-1.78-3.83-1-5.99 0-0.01 0.01-0.02 0.02-0.03 1.77-3.99 6.42-8.43 11.79-12.87 0.7-0.58 1.32-1.12 1.87-1.62 0.14-0.12 0.29-0.25 0.42-0.38 0.11-0.1 0.22-0.2 0.33-0.29 5.17-4.77 3.23-5.86 12.52-15.54 10.6-11.03 17.9-11.23 19.97-10.23 1.76 0.86-1.81 6.71-5.76 13.28-2.06 0.76-11.65 4.65-18.9 13.93-6.38 8.14-10.63 18.61-14.98 24.67-0.25-0.15-0.49-0.3-0.72-0.46-1.97-1.3-3.97-2.65-5.56-4.47" fill="#1c468a"/><path d="m1166.2 357.23c1.25-6.27 10.19-5.22 20.18-2.78 9.98 2.44 7.61-0.46 21.82 1.11s18.52 6.87 18.95 8.98c0.39 1.88-6.63 2.54-14.17 3.41-0.94 0.1-1.9 0.22-2.85 0.34-8.5 1.07-14.73 6.55-22.45 11.06-7.32 4.27-18.24 21.66-18.24 21.66l-19.49-1.54s10.23-15.54 14.19-22.29c2.32-3.97 2.2-9.23 1.91-13.28-0.15-2.21-0.29-4.46 0.15-6.67" fill="#ffb27d"/><path d="m1186.4 354.45c9.98 2.44 7.61-0.46 21.82 1.11s18.52 6.87 18.95 8.98c0.39 1.88-6.63 2.54-14.17 3.41l-0.07-0.15s-8.52-6.04-20.35-6.32c-9.64-0.24-19.85 2.53-26.51 2.42-0.15-2.21-0.29-4.46 0.15-6.67 1.25-6.27 10.19-5.22 20.18-2.78" fill="#1c468a"/><path d="m1122.9 643.48s4.65 11.38 9.76 11.84c5.1 0.47 21.36 3.02 22.52 0.7s0-10.68-3.49-13.7c-3.48-3.02-25.07-7.89-25.07-7.89l-3.72 9.05" fill="#ffb27d"/><path d="m1091.5 481.85-42-113.04s-6.45-0.62-12.64 1.16c-5.69 1.64-12.22 5.95-12.22 5.95s10.42 108.54 29.53 131.11c19.1 22.58 37.33-25.18 37.33-25.18" fill="#163560"/><path d="m925.41 527.58s120.69 40.81 147.61 32.13c26.92-8.69 107.73-169.48 107.73-169.48s-1.82-2.42-6.8-4.29c-4.63-1.74-15.84-1.63-15.84-1.63s-72.94 62.52-81.62 80.75c-8.68 18.24-12.15 35.6-20.84 33.87-8.68-1.74-112.01-42.55-135.45-18.24s-17.313 55.9-17.313 55.9l22.523-9.01" fill="#1c468a"/><path d="m994.22 815.35c-5.217 2.96-11.469 3.29-15.842 3.03 1.126 1.16 3.341 1.59 3.341 1.59-2.712 0.4-8.764-2.29-8.764-2.29-37.72 14.53-43.649-41.01-42.856-53.91 0.786-12.9 0.882-27.75-17.948-39.33-37.049-22.77-5.789-62.52-5.789-62.52 0.292-0.17 17.238-28.91 17.238-28.91-0.951 10.43 47.159 65.45 72.259 81.93 6.114 9 8.284 24.89 8.444 26.14-1.05-12.6-3.21-19.67-5.136-23.65 21.256 19.56 8.876 90.06-4.947 97.92" fill="#b5453c"/><path d="m994.37 714.12c0.125-0.05-12.12-6.41-21.33-3.89-8.664 2.36-14.325 13.59-14.206 13.62 3.67 0.73 4.728 5.77 4.65 27.43l1.659-0.32 27.888-5.52s-0.634-8.78-0.653-17.05c-0.019-6.94 0.402-13.53 1.992-14.27" fill="#ffb27d"/><path d="m993.03 745.44s-0.634-8.78-0.653-17.05c-15.606 0.44-23.855 14.68-27.235 22.57l27.888-5.52" fill="#ed975d"/><path d="m962.26 753.99s-8.179 12.93-10.141 23.98c-1.402 7.88 2.616 37.13 32.001 32.91 0 0 8.534-0.84 16.557-6.26 6.38-4.3 15.59-13.61 5.29-39.12l-2.67-8.62-41.037-2.89" fill="#b5453c"/><path d="m998.24 737.61s-36.924-0.61-36.95 22.39c-0.025 23-4.808 38.41 18.767 39.77 23.569 1.36 28.159-7.41 30.039-15.08 1.88-7.68-2.25-46.33-11.856-47.08" fill="#ffb27d"/><path d="m996.88 800.33s-10.109-26.98-25.625-30.97c-15.515-3.99-22.245 0.17-22.245 0.17s11.901 9.45 14.371 25.95c0 0 25.873 17.7 33.499 4.85" fill="#b5453c"/><path d="m994.37 798.14s7.548-6.02 9.388-11.88 2.67-17.91 6.19-17.5c0 0 7.61 18.34-0.95 28.71-9.074 11.01-14.628 0.67-14.628 0.67" fill="#b5453c"/><path d="m912.15 614.79c-3.641 15.27 8.748 44.9 21.68 69.43 11.734 22.24 23.914 40.28 25.008 39.63 30.947-18.37 33.744-3.1 33.744-3.1h1e-3c0.012 0 28.109-3.73 36.069-17.43 9.87-17 20.54-64.51 31.14-73.5-1.63-4.98-0.93-7.63 0.79-13.8 0.37-1.32 0.78-2.58 1.23-3.77 1.6-4.34 3.59-7.87 5.32-10.92-5.39-3.28-15.79-9.5-23.45-5.03-11.68 6.84-20.8 27.65-25.93 35.94-0.02 0.03-0.03 0.06-0.05 0.09-11.15-63.11 4.01-77.48-3.67-84.13-8.1-7.03-19.679 3.34-45.151-7.7-16.706-7.25-39.891-17.72-55.498-19.55-8.185-0.96-14.293 0.47-16.284 5.99-5.789 16.07 21.998 58.73 15.051 87.85" fill="#1c468a"/><path d="m990.04 751.55s0.688-2.92 7.957-2.47c0 0 6.107 0.37 5.917 3.59 0 0-5.919 2.28-13.874-1.12" fill="#fff"/><path d="m897.1 526.94c1.991-5.52 8.099-6.95 16.284-5.99 10.803 4.71 57.467 22.79 56.946 35.04-0.776 18.13-8.973 18.71-3.184 41.1 4.649 17.97-38.469 51.39-45.347 58.66-12.932-24.53-13.289-25.69-9.648-40.96 6.947-29.12-20.84-71.78-15.051-87.85" fill="#163560"/><path d="m891.82 592.36c8.276 11.62 16.897 17.76 22.568 20.85-1.305 3.37 34.809 47.64 34.809 54.5 0 6.95 9.636 56.14 9.636 56.14s-30.091-1.86-40.51-16.39c-13.03-18.17-40.091-88.1-26.503-115.1" fill="#1c468a"/><path d="m914.39 613.21 60.134-15.69-5.645-10.13s-73.179 0.51-77.057 4.97c-3.878 4.45 22.568 20.85 22.568 20.85" fill="#ffb27d"/><path d="m1017.8 632.24c5.13-8.29 14.25-29.1 25.93-35.94 7.66-4.47 18.06 1.75 23.45 5.03-1.73 3.05-3.72 6.58-5.32 10.92-4.3-0.99-9.54-2.24-12.93-3.26-6.58-1.99-31.13 23.25-31.13 23.25" fill="#163560"/><path d="m974.52 597.52s18.883 5.35 23.381 4.1c4.495-1.25 19.905-11.46 17.745-14.23-2.17-2.77-15.746 1.66-21.993 0.82s-11.078-3.92-15.576-3.25c-4.498 0.66-9.202 2.43-9.202 2.43l5.645 10.13" fill="#ffb27d"/><path d="m974.52 597.52s9.239 4.75 11.867 7.45c0.331 0.34 0.892 0.27 1.147-0.13 0.704-1.11 1.363-3.26-1.877-5.39-4.665-3.07-11.137-1.93-11.137-1.93" fill="#ffb27d"/><path d="m1061.8 570.95h-88.099c0 3.88 3.144 7.03 7.023 7.03h81.076v-7.03" fill="#ed7d2b"/><path d="m1061.5 666.91h136.21l-32.67-95.96h-137.1l33.56 95.96" fill="#ed7d2b"/><path d="m1199.8 666.9-32.68-95.94h-137.09l33.55 95.94h136.22" fill="#f99746"/><path d="m1126.3 619.82c-0.85-3.67-4.51-6.64-8.17-6.64-3.67 0-5.95 2.97-5.11 6.64 0.85 3.66 4.51 6.64 8.17 6.64 3.67 0 5.96-2.98 5.11-6.64" fill="#f9ddbf"/><path d="m1199.8 666.9-32.68-95.94h-90.79c60.14 20.52 76.15 83.11 78.84 95.94h44.63" fill="#ed893e"/><path d="m804.32 277.37c1.723 0 3.196 1.21 3.49 2.87l17.108 96.96 24.607 139.47 6.881 38.99-17.527 0.5-3.041-22.64-21.351-159.09-12.659-94.3c-0.195-1.46 0.974-2.76 2.492-2.76" fill="#95c0f4"/><path d="m835.84 533.52c11.356-5.01 13.687-16.85 13.687-16.85l6.881 38.99-17.527 0.5-3.041-22.64" fill="#78acea"/><path d="m1240.3 277.37c-1.72 0-3.19 1.21-3.49 2.87l-17.1 96.96-24.61 139.47-6.88 38.99 17.52 0.5 3.04-22.64 21.36-159.09 12.65-94.3c0.2-1.46-0.97-2.76-2.49-2.76" fill="#95c0f4"/><path d="m1208.7 533.52c-11.35-5.01-13.68-16.85-13.68-16.85l-6.88 38.99 17.52 0.5 3.04-22.64" fill="#78acea"/><path d="m792.62 540.35h448.84c5.88 0 10.69 4.81 10.69 10.69v9.24c0 5.88-4.81 10.69-10.69 10.69h-448.84c-5.88 0-10.69-4.81-10.69-10.69v-9.24c0-5.88 4.81-10.69 10.69-10.69" fill="#78acea"/><path d="m2807.7 278.3h-2638.9c-1.648 0-2.996 1.34-2.996 2.99v1.03c0 1.64 1.348 2.99 2.996 2.99h2638.9c1.65 0 3-1.35 3-2.99v-1.03c0-1.65-1.35-2.99-3-2.99" fill="#2e3552"/><path d="m1907.5 587.29s-11.65-14.44-8-16.41c3.63-1.97 13.25-5.65 15.52-3.33s2.98 19.34 2.98 19.34l-10.5 0.4" fill="#ffb27d"/><path d="m1907.9 587.05s-4.76-1.65-6.63-4.13c-1.87-2.47-6.01-6.25-5-7.29 1.02-1.05 6.96 3.57 6.96 3.57l4.67 7.85" fill="#ffb27d"/><path d="m1951.5 780.12s-13.12-122.17-14.29-125.65c-0.25-0.75-1.28-4.62-2.73-10.18-2.07-7.95-4.99-19.37-7.76-30.23-4.17-16.4-8-31.54-8-31.54l-11.4 3.76s-0.59 59.37 2.34 73.04c2.94 13.67 12.31 97.67 17.05 108.97 4.72 11.3 24.79 11.83 24.79 11.83" fill="#aec3ff"/><path d="m1924.2 487.16-71.57 18.77c-9.31 2.45-14.94 12.07-12.5 21.38l8.14 31.02c2.44 9.31 12.06 14.94 21.38 12.49l71.57-18.77c9.32-2.44 14.94-12.06 12.5-21.38l-8.14-31.01c-2.44-9.32-12.06-14.94-21.38-12.5" fill="#a02e2e"/><path d="m1922.5 557.05-25.57 6.71 1.76 6.69c0.3 1.15 1.49 1.84 2.64 1.54l6.42-1.68 11.78-3.09 3.18-0.83c0.22-0.06 0.41-0.15 0.6-0.26 0.78-0.49 1.19-1.45 0.95-2.39zm-64.79-1.18-8.23-31.37c-1.59-6.08 0.23-12.28 4.27-16.55 1.33-1.42 2.91-2.63 4.7-3.54h0.01v-0.01c1.11-0.57 2.3-1.03 3.57-1.36l71.44-18.74c9.35-2.45 19.01 3.19 21.46 12.54l8.23 31.38c2.45 9.35-3.19 19.01-12.54 21.46l-24.6 6.45 1.75 6.69c0.82 3.1-1.05 6.27-4.14 7.08l-2.69 0.71-14.97 3.92-3.72 0.98c-1.49 0.39-3.05 0.17-4.39-0.61s-2.3-2.04-2.69-3.53l-1.75-6.69-14.25 3.74c-0.57 0.15-1.13 0.26-1.69 0.35h-0.02c-5.72 0.92-11.4-1.11-15.29-5.06v-0.01c-2.09-2.11-3.66-4.77-4.46-7.83" fill="#bc3f3f"/><path d="m1914.3 567.23s3.18 5.35 1.99 7.22-5.48-5.55-5.48-5.55 2.93 6.37 1.84 7.42c-1.1 1.05-5.59-6.27-5.59-6.27s2.8 6.19 1.82 6.4-4.31-5.21-4.31-5.21 1.73 4.64 0.15 4.41c-1.58-0.22-5-4.44-5-4.44l14.58-3.98" fill="#ffb27d"/><path d="m1934.5 644.29c-2.07-7.95-4.99-19.37-7.76-30.23-1.78 5.02-4.05 13.01-5.48 23.97-2.64 20.21 5.47 63.29 5.47 63.29l7.77-57.03" fill="#9db0f4"/><path d="m2084.6 592.32s12.69-10.31 14.26-13.53c1.56-3.22 5.51-15.14 5.3-18.98-0.21-3.85-9.72 8.79-12.52 9.81-2.79 1.02 2.92-5.19 2.28-6.52s-6.6 3.02-8.87 4.44-3.86 11.06-7.25 16.31c-3.38 5.24 6.8 8.47 6.8 8.47" fill="#ffb27d"/><path d="m1918.1 283.68h63.26c4.53 3.07-1.22 33.12-1.22 33.12s-17.27 6.56-20.25-6.77c-2.99-13.31-21.99-17.54-32.05-19.17-6.88-1.12-9.06-4.9-9.74-7.18" fill="#233862"/><path d="m2011.9 283.68h63.27c4.53 3.07-1.23 33.12-1.23 33.12s-17.26 6.56-20.25-6.77c-2.99-13.31-21.99-17.54-32.04-19.17-6.89-1.12-9.06-4.9-9.75-7.18" fill="#233862"/><path d="m1935.1 590.27s2.84-35.48 6.18-78.13c4.54-57.93 16.8-201.56 16.8-201.56s8.03-6.85 25.82-3.1c0 0 15.14 49.55 19.67 106.1 0.07 0.93 0.14 1.86 0.21 2.8 4.22 57.57 10.77 178.8 10.77 178.8l-79.45-4.91" fill="#2b478b"/><path d="m1934.1 602.53s3.81-47.74 7.15-90.39l62.29-98.56c0.07 0.93 0.14 1.86 0.21 2.8 4.22 57.57 10.77 178.8 10.77 178.8l-80.42 7.35" fill="#233862"/><path d="m1952.3 602.53s45.18-112.46 59.62-155.09c10.29-30.36 39.3-136.88 39.3-136.88s12.62-3.84 23.22 3.58c0 0 10.8 108.83-11.01 139.52-11.57 16.28-2.87 169.23-49.77 170.54-46.91 1.31-61.36-21.67-61.36-21.67" fill="#2b478b"/><path d="m2038.4 592.32c-18.83-10.63-99.54-10.39-103.27-2.05-8.35 18.63-10.45 113.28-6.51 142.31 0 0 2.04 44.62 6.51 42.65 29.8 13.7 78.05 1.26 78.05 1.26 13.01-3.83 11.9-33.56 15.53-75.31 0.46-5.38 0.98-10.98 1.56-16.78 2.57-25.78 6.31-55.39 11.98-86.63 0.38-2.06-1.05-3.88-3.85-5.45" fill="#aec3ff"/><path d="m1990.9 781.51c-0.5-7.98-10.91-7.08-23.42-4.22-12.51 2.85-7.98 10.23-7.98 10.23s0.18 5.67 0.97 12.47c0.29 2.47 0.65 5.1 1.13 7.65 0.22 1.24 0.46 2.48 0.74 3.66 1.64 7.03 25 0.25 24.84-1.64-0.46-5.1 3.23-21.88 3.72-28.15" fill="#ffb27d"/><path d="m1964 767.58-0.99 11.03 13.85-2.62-5.33-9.84-7.53 1.43" fill="#233862"/><path d="m1959.8 792.71-8.28-12.59s0-7.74 7.19-13.36l11.32 10.54s-7.32 2.79-10.23 15.41" fill="#9db0f4"/><path d="m1970 777.3s2.34-8.42 6.87-12.28c0 0 17.68 4.75 21.89 13.81l-9.2 11.88s-0.45-8.99-19.56-13.41" fill="#9db0f4"/><path d="m1987.3 805.69s-11.25-7.48-26.84-5.7c0.29 2.47 0.65 5.1 1.13 7.65 3.07 0.74 5.65 1.21 5.65 1.21l20.06-3.16" fill="#e2915a"/><path d="m1994.4 814.19c-5.5-15.13-25.57-11.27-34.11-8.84-2.41 0.68-3.9 1.25-3.9 1.25-2.64 1.2-3.46 5.81-3.22 11.63 0.45 11.52 5 27.78 7.61 31.7 3.93 5.9 10.48 11.89 29.95 3.54s10.72-19.89 3.67-39.28" fill="#ffb27d"/><path d="m2009.4 821.96c-6.14-5.01-19.34-14.28-19.34-14.28s1.47 1.74 3.26 6.74c0.21 0.57 0.27 1.4 0.24 2.28-0.07 2.45 0.52 4.9 1.81 6.99 0.8 1.31 1.09 2.66 0.08 3.62-1.67 1.58-4.52 0.13-6.39-1.15-1.23-0.84-2.84-0.89-4.11-0.11-0.01 0.01-0.02 0.01-0.03 0.02-5.24 3.29 0.55 9.08-3.71 13.89-4.28 4.81-22.74 5.47-22 8.48-6.3 3.56-2.33 16.7-2.21 17.4 0 0 9.04-0.8 20.34 2.02 9.17 2.3 19.28-3.59 22.47-6.01 0 0.58-0.09 1.38-0.51 2.24 0 0 1.39-1.37 1.37-2.97 0.14-0.14 0.2-0.24 0.16-0.27 0 0 1.82 0.04 2.89-0.67 0 0-0.78 0.25-1.15-0.22-0.05-0.05-0.1-0.08-0.16-0.12 12.27-8.67 12.09-33.71 6.99-37.88" fill="#233862"/><path d="m1965.4 816.38s-0.99-1.91-5.95-0.33c0 0-4.17 1.33-3.48 3.53 0 0 4.5 0.55 9.43-3.2" fill="#fff"/><path d="m1964 767.58s-11.06-139.68-10.9-151.32c0.15-11.64 12.25-23.94 12.25-23.94s9.63 10.55 11.51 21.68-5.33 152.15-5.33 152.15l-7.53 1.43" fill="#2a4e96"/><path d="m2013.2 776.49s17.84-4.27 31.95-31.37 25.25-81.76 31.98-96.18c6.74-14.43 11.36-59.86 11.36-59.86l-10.67-5.23s-25.74 46.56-29.55 61.83c-2.06 8.26-33.54 74.39-33.54 74.39l-1.53 56.42" fill="#aec3ff"/><path d="m2038.4 592.32h-0.01c-33.6 4.83-23.97 116.03-21.34 116.47 2.64 0.44 12.3-19.88 12.3-19.88l0.92-4.51c2.57-25.78 6.31-55.39 11.98-86.63 0.38-2.06-1.05-3.88-3.85-5.45" fill="#9db0f4"/><path d="m2457.6 349.41s13.99-12.77 11.26-21.84-15.36-15.12-17.06-26.21c-1.71-11.08-8.53-17.13-14.67-17.13h-29.28s-4.52 7.8 6.39 10.15c10.92 2.35 15.04 15.38 14.36 27.48-0.68 12.09 1.02 28.22 1.02 28.22l23.2 5.37 4.78-6.04" fill="#233862"/><path d="m2286 316.39s2.51-29.06-3.64-32.08l-78.59 0.16s0 9.07 12.62 11.09c12.63 2.01 34.8 9.4 38.56 25.87 3.75 16.46 31.05-5.04 31.05-5.04" fill="#233862"/><path d="m2219.6 726.8s4.14-50.93 9.02-112.15c6.62-83.16 14.58-185.31 15.37-204.66 1.36-33.6 6.83-87.35 6.83-87.35s12.96-12.77 38.89-7.39c0 0 23.12 76.73 29.72 157.92 0.1 1.33 0.2 2.67 0.31 4.01 6.14 82.65 15.69 256.68 15.69 256.68l-115.83-7.06" fill="#2a4e96"/><path d="m2219.6 726.8s4.14-50.93 9.02-112.15l90.81-141.48c0.1 1.33 0.2 2.67 0.31 4.01 6.14 82.65 15.69 256.68 15.69 256.68l-115.83-7.06" fill="#233862"/><path d="m2238.5 720.75s74.72-184.44 123.85-271.12c49.14-86.68 64.49-110.87 64.49-110.87s28.15 11.09 30.71 18.65c0 0-18.79 167.34-51.69 208.13-18.59 23.05-34.63 74.19-33.83 98.39 1.39 41.73-14.28 90.09-14.28 90.09l-119.25-33.27" fill="#2a4e96"/><path d="m2178.9 718.04s-13.95-18.89-14.98-23.93-2.23-23.04-0.56-28.31 10.37 15.72 13.89 18.14-2.2-8.26-0.83-9.88c1.37-1.63 8.09 6.56 10.74 9.35 2.65 2.8 1.4 16.78 4.23 25.29 2.82 8.51-12.49 9.34-12.49 9.34" fill="#ffb27d"/><path d="m2240.4 992.58s-18.85-175.51-20.53-180.51c-0.37-1.09-1.85-6.65-3.93-14.64-2.97-11.41-7.16-27.82-11.14-43.41-6-23.57-12.48-43.95-12.48-43.95s-2.85-1.84-9.71-1.25c-4.69 0.4-7.22 4.4-7.22 4.4s0.69 86.17 4.9 105.81c4.22 19.65 17.68 140.31 24.49 156.55 6.79 16.24 35.62 17 35.62 17" fill="#fff"/><path d="m2215.9 797.43c-2.97-11.41-7.16-27.82-11.14-43.41-2.56 7.21-5.82 18.69-7.88 34.42-3.79 29.05 7.86 90.92 7.86 90.92l11.16-81.93" fill="#dceaff"/><path d="m2365.2 722.77c-27.06-15.26-143-14.92-148.37-2.94-11.99 26.76-15 162.74-9.34 204.45 0 0 2.93 64.1 9.34 61.28 42.83 19.67 112.14 1.8 112.14 1.8 18.69-5.5 17.09-48.21 22.3-108.19 0.67-7.72 1.42-15.78 2.25-24.1 3.69-37.04 9.06-79.59 17.21-124.47 0.55-2.95-1.51-5.57-5.53-7.83" fill="#fff"/><path d="m2297 994.57c-0.72-11.46-15.67-10.16-33.66-6.06-17.97 4.09-11.46 14.7-11.46 14.7s0.26 8.15 1.4 17.91c0.41 3.54 0.93 7.32 1.61 10.98 0.32 1.8 0.67 3.56 1.08 5.27 2.35 10.09 35.91 0.35 35.67-2.36-0.65-7.33 4.65-31.43 5.36-40.44" fill="#ffb27d"/><path d="m2258.4 974.56-1.42 15.84 19.9-3.75-7.66-14.15-10.82 2.06" fill="#233862"/><path d="m2252.3 1010.7-11.89-18.09s0-11.13 10.32-19.2l16.26 15.14s-10.51 4.01-14.69 22.15" fill="#dceaff"/><path d="m2267 988.52s3.37-12.09 9.88-17.64c0 0 25.39 6.83 31.45 19.83l-13.23 17.08s-0.64-12.92-28.1-19.27" fill="#dceaff"/><path d="m2291.8 1029.3s-16.16-10.74-38.55-8.19c0.41 3.54 0.93 7.32 1.61 10.98 4.42 1.08 8.12 1.75 8.12 1.75l28.82-4.54" fill="#e2915a"/><path d="m2302.1 1041.5c-7.9-21.74-36.73-16.19-49-12.7-3.46 0.98-5.6 1.8-5.6 1.8-3.79 1.72-4.97 8.34-4.63 16.7 0.65 16.55 7.19 39.92 10.93 45.55 5.65 8.47 15.06 17.08 43.02 5.09 27.97-12 15.41-28.58 5.28-56.44" fill="#ffb27d"/><path d="m2323.7 1052.7c-8.83-7.2-27.79-20.52-27.79-20.52s2.11 2.49 4.69 9.68c0.29 0.81 0.38 2.01 0.34 3.27-0.1 3.53 0.75 7.04 2.6 10.05 1.15 1.87 1.57 3.82 0.11 5.2-2.4 2.27-6.49 0.18-9.17-1.66-1.77-1.21-4.09-1.28-5.91-0.15-0.01 0.01-0.02 0.02-0.04 0.03-7.54 4.72 0.79 13.04-5.34 19.95-6.14 6.9-32.66 7.85-31.59 12.18-9.06 5.12-3.35 24-3.19 25 0 0 13-1.15 29.22 2.9 13.18 3.31 27.7-5.15 32.3-8.64 0 0.84-0.14 2-0.74 3.22 0 0 2-1.97 1.96-4.27 0.2-0.2 0.29-0.34 0.23-0.37 0 0 2.62 0.05 4.15-0.97 0 0-1.12 0.36-1.65-0.31-0.07-0.08-0.14-0.13-0.23-0.18 17.63-12.45 17.37-48.43 10.05-54.41" fill="#bc3f3f"/><path d="m2260.4 1044.7s-1.42-2.73-8.55-0.46c0 0-5.98 1.9-4.99 5.06 0 0 6.46 0.79 13.54-4.6" fill="#fff"/><path d="m2258.4 974.56s-15.88-200.67-15.66-217.39 17.6-34.4 17.6-34.4 13.84 15.16 16.54 31.15c2.71 16-7.66 218.58-7.66 218.58l-10.82 2.06" fill="#2a4e96"/><path d="m2365.2 722.77h-0.02c-48.27 6.95-34.44 166.7-30.65 167.33s17.67-28.56 17.67-28.56l1.32-6.47c3.69-37.04 9.06-79.59 17.21-124.47 0.55-2.95-1.51-5.57-5.53-7.83" fill="#dceaff"/><path d="m2507.1 603.77-102.07-29.7c-13.28-3.86-27.31 3.84-31.18 17.13l-12.87 44.23c-3.86 13.28 3.84 27.31 17.13 31.18l102.06 29.7c13.29 3.87 27.32-3.84 31.18-17.12l12.88-44.23c3.86-13.29-3.84-27.32-17.13-31.19" fill="#a02e2e"/><path d="m2453.4 688.66-36.46-10.62-2.78 9.55c-0.47 1.64 0.48 3.37 2.12 3.85l9.16 2.66 16.79 4.9 4.54 1.31c0.31 0.09 0.62 0.13 0.92 0.12 1.33-0.02 2.54-0.9 2.93-2.23zm-78.98-49.29 13.02-44.74c2.52-8.66 9.35-14.96 17.47-17.25 2.7-0.76 5.53-1.08 8.41-0.89h0.01 0.01c1.79 0.12 3.6 0.42 5.4 0.95l101.88 29.65c13.34 3.88 21.07 17.96 17.19 31.3l-13.02 44.74c-3.88 13.34-17.96 21.07-31.3 17.19l-35.08-10.21-2.77 9.55c-1.28 4.41-5.92 6.95-10.33 5.67l-3.85-1.12-21.34-6.21-5.3-1.55c-2.12-0.61-3.89-2.04-4.97-3.99-1.07-1.95-1.32-4.21-0.7-6.33l2.78-9.55-20.33-5.91c-0.8-0.23-1.58-0.5-2.34-0.81l-0.01-0.01h-0.01c-7.73-3.1-13.23-9.79-15.11-17.53v-0.01c-1.01-4.14-0.98-8.57 0.29-12.94" fill="#bc3f3f"/><path d="m2422.8 717.22s-3.16-26.46 2.77-26.08 20.45 3.22 21.44 7.78-11.12 25.82-11.12 25.82l-13.09-7.52" fill="#ffb27d"/><path d="m2423.6 717.29s-4.54-5.64-4.93-10.08-2.56-12.2-0.52-12.7c2.03-0.5 5.75 9.66 5.75 9.66l-0.3 13.12" fill="#ffb27d"/><path d="m2329 987.36s25.63-6.14 45.9-45.07c20.26-38.93 36.27-117.45 45.95-138.18 9.67-20.72 17.04-82.91 17.04-82.91s-1.51-3.09-6.73-4.22c-4.04-0.87-8.2-0.53-8.2-0.53s-38.11 61.05-43.58 82.98c-2.96 11.87-48.19 106.87-48.19 106.87l-2.19 81.06" fill="#fff"/><path d="m640.73 309.56-3.84 27.67 16.134 13.48 5.082-36.63-17.376-4.52" fill="#ffb27d"/><path d="m694.31 284.85h-65.778s-1.576 10.03 1.859 17.63c3.293 7.3 8.416 11.81 8.883 17.4 4.18-4.31 9.323-7.08 18.832-5.8 1.166-1.89 7.522-12 11.414-14.79 4.299-3.09 23.466-1.99 24.79-14.44" fill="#233862"/><path d="m681.09 683.12c-4.302-34.6-7.82-67.23-10.685-97.63-15.308-162.01-12.304-261.03-12.304-261.03s-1.106-2.93-10.597-2.97c-5.364-0.03-10.618 1.14-10.618 1.14s-34.275 105.79-31.629 165.99c0.315 7.24 1.165 13.82 2.675 19.49 8.222 30.8-30.427 148.59 11.586 192.46 42.005 43.86 63.55-1.57 61.572-17.45" fill="#f99746"/><path d="m681.09 683.12c-4.302-34.6-7.82-67.23-10.685-97.63l-65.148-96.87c0.315 7.24 1.165 13.82 2.675 19.49 8.222 30.8-30.427 148.59 11.586 192.46 42.005 43.86 63.55-1.57 61.572-17.45" fill="#ed7d2b"/><g fill="#ffb27d"><path d="m732.86 1013.2s-1.585 7.91-3.37 13.94c-0.79 2.67 4.716 20.21 8.526 22.36 3.811 2.16 13.735-9.65 10.927-18.71-1.443-4.66-3.813-19.82-3.813-19.82l-12.27 2.23"/><path d="m732.86 1013.2s-2.071 4.59-3.942 5.33-3.876 8.24-5.249 11.21c0 0 1.326 1.94 3.647-0.56 1.416-1.52 4.572-6 4.572-6l0.972-9.98"/><path d="m461.32 986.6c-0.403-0.83-0.964-2.32-1.463-3.72-8e-3 0.38-0.014 0.76-0.018 1.13-0.026 2.78-10.424 17.94-14.698 18.89-4.276 0.95-10.31-13.25-4.97-21.1 2.743-4.03 9.445-17.83 9.445-17.83l11.08 5.72s0.639 4.99 2.21 6.25 1.295 9.01 1.738 12.26c0 0-1.837 1.47-3.324-1.6"/><path d="m530.42 317.86c-0.93 8.86-1.16 32.19-1.16 32.19s23.771 7.6 22.896 2.38c-4.301-25.65-3.133-38.35-3.133-38.35l-9.613-5.74-8.99 9.52"/></g><path d="m661.24 684.77s-91.832-251.73-109.91-360.92c0 0-4.188-2.88-12-1.92-8.86 1.08-11.288 7.24-11.288 7.24s-16.59 130.87 16.384 176.3c22.654 31.22-9.771 168.31 42.992 179.3 52.764 10.99 73.821 0 73.821 0" fill="#f99746"/><path d="m644.93 926.92-1e-3 0.01c-0.016 0.11-0.042 0.21-0.076 0.32-0.537 2.22-1.123 4.4-1.754 6.56l-1e-3 0.01c-1.922 6.62-4.209 12.92-6.676 18.49-1.421 3.19-2.892 6.15-4.398 8.78-0.23 0.41-0.455 0.78-0.671 1.17l-0.011 0.01c-3.549 5.97-7.197 10.09-10.488 11.36-6.004 2.32-12.683 1.68-17.281 0.72 1.009 1.41 3.298 2.2 3.298 2.2-2.943 0.01-8.936-3.8-8.936-3.8-42.296 9.46-39.824-50.37-36.944-63.93 2.87-13.56-10.748-20.15-29.953-34.03-36.651-26.47-36.038-54.54-36.038-54.54 0.331-0.14 0.692-0.3 1.066-0.49 1.475 3.63 4.603 10.51 7.882 11.96-0.093-0.32-2.76-9.23-3.517-14.21 5.583-3.08 13.309-7.84 21.698-13.22l0.011-0.01c11.225-7.18 23.614-15.45 33.542-22.16-0.472 2.73-0.939 6.63-0.245 8.83l3.163-9.8 0.415-1.28c6.336-4.29 11.335-7.73 13.873-9.49 0.26-0.18 0.491-0.34 0.698-0.48 0.742-0.5 1.139-0.78 1.139-0.78-0.843 3.46 2.855 12.49 9.061 23.87 0.425 0.79 0.876 1.6 1.336 2.42 2.004 3.6 4.241 7.39 6.649 11.3 0.867 1.41 1.744 2.82 2.654 4.26-1e-3 0.01 8e-3 0.01 8e-3 0.01 0.728 1.16 1.465 2.31 2.228 3.48l7e-3 0.01c1.799 2.78 3.659 5.58 5.557 8.38 4.916 7.26 10.121 14.47 15.265 21.08 7.469 9.63 14.798 18 20.935 23.48 0.201 0.41 0.391 0.83 0.562 1.26 0.961 2.23 1.698 4.71 2.269 7.24 0.178 0.75 0.336 1.52 0.475 2.28 1.53 8.05 1.56 16.04 1.54 17.93 0.491-7.77 0.296-13.64-0.225-18.07-0.118-0.98-0.246-1.88-0.394-2.72h2e-3c-0.327-1.9-0.704-3.46-1.111-4.76 1.005 1.25 1.889 2.61 2.669 4.11 0.511 0.97 0.977 2 1.389 3.07 4.95 12.64 3.618 31.49-0.671 49.17" fill="#163560"/><path d="m636.98 866.3c0.142-0.04-11.841-8.71-22.006-7.49-9.561 1.14-17.336 12.16-17.213 12.2 3.776 1.35 4.102 6.87 0.602 29.83l1.811-0.08 30.447-1.46s0.711-9.41 1.996-18.18c1.075-7.36 2.56-14.28 4.363-14.82" fill="#ffb27d"/><path d="m630.62 899.3s0.711-9.41 1.996-18.18c-16.62-1.99-27.614 11.8-32.443 19.64l30.447-1.46" fill="#ed975d"/><path d="m596.64 903.52s-10.711 12.42-14.536 23.83c-2.731 8.14-3.083 39.78 28.744 39.95 0 0 9.184 0.46 18.545-4.02 7.446-3.57 18.678-11.98 11.786-40.66l-1.477-9.57-43.062-9.53" fill="#163560"/><path d="m684.93 689.6s-39.621-23.54-89.366-11.44c-0.586 0.15-40.961 6.59-40.961 6.59 0.693 1.9 5.911 33.09 6.594 34.83 8.825 22.78 24.954 146.38 38.43 152.48 3.441-3.75 13.275-6.31 21.692-5.57 9.692 0.86 12.937 5.05 12.133 9.55 10.725-5.07 18.966-9.78 18.966-9.78 9.803-14.69 32.512-176.66 32.512-176.66" fill="#fff"/><path d="m637.39 891.82s-39.062-6.47-42.717 17.92c-3.655 24.38-11.158 39.97 13.627 45.14 24.786 5.16 31.037-3.42 34.237-11.26 3.2-7.85 4.92-49.49-5.147-51.8" fill="#ffb27d"/><path d="m626.04 958.13s-6.464-30.21-22.289-36.89c-15.824-6.68-23.617-3.33-23.617-3.33s11.13 11.9 11.146 29.79c0 0 24.647 22.84 34.76 10.43" fill="#163560"/><path d="m623.73 955.41s8.957-5.2 11.833-11.12 5.656-18.58 9.318-17.59c0 0 5.184 20.65-5.53 30.31-11.361 10.23-15.621-1.6-15.621-1.6" fill="#163560"/><path d="m745.4 1012.6c-1.588 0.56-3.93 1.88-6.983 2.16-2.72 0.24-6.138-0.65-6.138-0.65s-11.02-68.5-11.839-72.13c-0.818-3.63-47.27-55.96-59.794-55.75-11.309 0.19-24.707-8.54-27.193-10.22 0 0 26.337-55.69 27.65-66.15 1.429-11.38 15.063-186.68 15.063-186.68s-0.811-8.15 14.426-3.77c15.236 4.39 19.047 8.01 19.047 8.01s-13.996 138.01-16.932 180.92c-0.394 5.76-1.335 11.1-2.674 16.02-1.291 4.74-0.273 9.81 2.622 13.78 19.263 26.45 49.684 69.29 51.379 78.4 2.49 13.38 1.366 96.06 1.366 96.06" fill="#2b478b"/><path d="m585.22 284.85h-65.778s-1.577 10.03 1.859 17.63c3.292 7.3 8.416 11.81 8.883 17.4 4.18-4.31 9.323-7.08 18.833-5.8 1.165-1.89 7.521-12 11.413-14.79 4.298-3.09 23.466-1.99 24.79-14.44" fill="#233862"/><path d="m630.41 804.48c-2.216 13.64-30.52 68.42-30.52 68.42s-17.893 5.35-29.67 1.08c-11.776-4.26-72.707 30.14-74.66 33.31-1.953 3.16-34.588 63.97-34.588 63.97s-2.706 1.57-7.042-0.69c-4.289-2.23-4.308-6.6-4.308-6.6s25.187-76.56 31.888-88.41c4.041-7.14 38.013-32.01 64.352-50.63 5.029-3.55 7.67-9.61 6.844-15.71-3.541-26.18-4.443-40.93-8.516-85.85-3.379-37.27-4.672-109.43-4.672-109.43s29.474-10.2 49.816-11.55c20.342-1.36 24.775 20.09 24.775 20.09s18.58 167.97 16.301 182" fill="#2b478b"/><path d="m624.59 903.88s4.746-2.79 10.349-1.95c3.838 0.58 4.71 5.13 4.71 5.13s-2.668 0.84-6.926-0.02c-4.258-0.85-8.133-3.16-8.133-3.16" fill="#fff"/><path d="m1872.2 1368.8s-18.27 32.48 0 39.09c18.28 6.61 26.55 0.51 27.42-6.88 0.87-7.4-6.96-36.56-6.96-36.56l-20.46 4.35" fill="#ffb27d"/><path d="m1886.9 1161c-33.32-6.01-63.96-8.79-91.62-9.41-26.25-0.59-49.8 0.77-70.42 3.17-5.54 0.63-10.86 1.35-15.97 2.12-53.95 8.18-83.75 22.69-83.75 22.69s49.3 103.2 89.13 99.24c46.72-4.66 125.89-46.59 133.76-34.83 8.86 13.25 16.28 126.87 16.28 126.87 20.71 14.18 33.08-0.77 33.08-0.77s40.47-199.89-10.49-209.08" fill="#f99746"/><path d="m1886.9 1161c-33.32-6.01-63.96-8.79-91.62-9.41-26.25-0.59-49.8 0.77-70.42 3.17-12.43 39.53-21.37 79.91 3.63 55.56 44.1-42.93 158.41-49.32 158.41-49.32" fill="#ed7d2b"/><path d="m1621.4 327.82s-3.54-41.03 5.13-45.29l110.98 0.22s0 12.81-17.83 15.66c-17.82 2.84-49.14 13.28-54.44 36.52-5.3 23.25-43.84-7.11-43.84-7.11" fill="#233862"/><path d="m1702.9 824.34c-0.55-26.82-1.84-54.49-4.36-79.36-11.99-118-16.2-260.58-17.92-288.07-2.99-47.71-12.41-123.94-12.41-123.94s-18.7-17.75-55.15-9.28c0 0-30.19 109.79-36.94 225.4-0.1 1.9-0.2 3.81-0.3 5.71-0.78 15.29-1.6 32.76-2.44 51.61-5.55 126.23-11.58 313.74-11.58 313.74l139.26 32.7s3.21-61.63 1.84-128.51" fill="#2a4e96"/><path d="m1702.9 824.34c-35.3-60.89-102.57-173.08-129.52-217.93-5.55 126.23-11.58 313.74-11.58 313.74l139.26 32.7s3.21-61.63 1.84-128.51" fill="#233862"/><path d="m1350.2 942.3s-22.66-26.65-24.7-34.04-5.67-34.01-3.72-42.01c1.94-8 17.01 22.31 22.49 25.54 5.48 3.24-4.11-12.05-2.24-14.6s12.69 8.92 16.91 12.81c4.22 3.88 3.8 24.78 8.87 37.14s-17.61 15.16-17.61 15.16" fill="#ffb27d"/><path d="m1344.9 374.44s-19.76-18.02-15.9-30.83c3.85-12.81 21.68-21.35 24.09-37 2.41-15.66 12.04-24.2 20.71-24.2h41.35s6.38 11.02-9.04 14.34c-15.41 3.32-21.23 21.72-20.26 38.79 0.96 17.08-1.45 39.85-1.45 39.85l-32.76 7.59-6.74-8.54" fill="#233862"/><path d="m1679.1 917.29s-130.37-278.94-199.75-401.33c-69.37-122.39-91.05-156.54-91.05-156.54s-39.75 15.65-43.36 26.33c0 0 26.53 236.28 72.99 293.88 26.25 32.54 57.09 130.21 58.53 164.37 1.45 34.16 31.9 115.68 31.9 115.68l170.74-42.39" fill="#2a4e96"/><path d="m1717.2 904.14s-51.84-34.66-125.22-31.44c-32.2 1.4-96.07 10.53-106.38 36.14-2.42 6.02-0.65 13.65 2.98 25.36 9.43 30.44 31.39 88.41 24.76 216.94-0.62 11.95-0.28 23.2 0.86 33.72 6.91 63.31 43.19 100.8 78.26 113.05 85.52 29.9 114.03-11.52 114.03-11.52s37.8-29.95 43.5-92.45c11.39-125.02-32.79-289.8-32.79-289.8" fill="#f99746"/><path d="m1617.5 1305.1s39.24-23.86 81.8-17.11c0 0 8.42 2.14 4.28 12.01 2.59 7.98 2.28 7.26 3.78 13.18 3.73 13.64 4.87 21.51 4.87 21.51l-24.15 25.38-22.88 24.26c-6.32-57.98-47.7-79.23-47.7-79.23" fill="#ffb27d"/><path d="m1661.6 1362.3s13.14-35.13 45.82-49.16c3.73 13.64 6.16 27.9 6.16 27.9l-25.44 18.99-26.54 2.27" fill="#ed985f"/><path d="m1739.4 1335.9s-74.9-9.36-80.16 36.67-18.47 75.82 29.13 83.74c47.6 7.93 58.92-8.62 64.47-23.57 5.55-14.94 5.91-93.22-13.44-96.84" fill="#ffb27d"/><path d="m1635.5 1463.8c-0.65 0.8-2.18 1.49-5.64 1.81 0 0 2.84 1.63 6.55 1.58 0.9 4.8 3.79 13.24 12.17 15 0 0-4.55-2.21-5.32-7.32 9.98 9.51 30.86 15.92 87.74 9.26 74.97-8.78 48.37-55.98 38.41-61.35-9.95-5.37-33.85 11.29-52.04 10.54-18.19-0.76-22.64-26.83-28.92-30.2-6.29-3.36-3.63 2.91-11.81 6.98-8.19 4.08-9.5-9.68-7.43-18.74 2.06-9.06-9.82-20.46-9.82-20.46l-11.09 12.89c-11.09 12.88-19.99 66.02-14.31 77.06 0.5 0.97 1 1.96 1.51 2.95" fill="#2c3a64"/><path d="m1864.3 1390.3-127.16-1.14-0.87 19.13 126.76 9.83 1.27-27.82" fill="#2a4e96"/><path d="m1960.3 1387.1-138.45-2-1.58 34.78 138.05 10.7 1.98-43.48" fill="#2a4e96"/><path d="m2053.6 1384.4-116.75-0.14-2.13 46.95 116.27 10.58 2.61-57.39" fill="#233862"/><path d="m2055.3 1376.5c3.6 0.16 6.39 3.21 6.22 6.81l-2.74 60.32c-0.16 3.6-3.21 6.39-6.81 6.23-3.61-0.17-6.39-3.22-6.23-6.82l2.74-60.32c0.16-3.6 3.22-6.39 6.82-6.22" fill="#233862"/><path d="m1736.7 1385.1c-3.2-0.14-5.91 2.33-6.06 5.53l-0.71 15.65c-0.15 3.21 2.33 5.92 5.53 6.07 3.21 0.14 5.92-2.34 6.06-5.54l0.71-15.65c0.15-3.2-2.33-5.91-5.53-6.06" fill="#2a4e96"/><path d="m1488.6 934.2c9.43 30.44 31.39 88.41 24.76 216.94-0.62 11.95-0.28 23.2 0.86 33.72h0.01c28.14 2.42 71.17-28 71.17-28s-26.5-161.54-96.8-222.66" fill="#ed7d2b"/><path d="m1617.5 1305.1s-72.17-12.4-109.81-58.35-98.19-110.74-112.5-133.43c-14.32-22.69-54.06-177.1-54.06-177.1s2.63-4.96 13.59-7.85c10.49-2.77 18.1 1.52 18.1 1.52s52.65 90.11 72.47 135.13c8.23 18.7 150.62 92.77 204.15 85.09 21.02-3.01-31.94 154.99-31.94 154.99" fill="#f99746"/><path d="m1863.5 1423.6s15.52-9.5 24.81-5.48c9.28 4.02 8.46 7.69 8.46 7.69s-28.05 7.79-33.27-2.21" fill="#ffb27d"/><path d="m1687.6 1254.8s-31.67-199.96-256.38-258.18l-24.48-48.29 43-7.28s255.83 74.12 252.38 317.28l-14.52-3.53" fill="#bc3f3f"/><path d="m1682.6 1286.7-10.37-1.01v-15.02l15.28-15.88 14.53 3.53v20.84l-10.45 7.54h-8.99" fill="#a02e2e"/><path d="m1641.9 1326.4s-10.04-2.26-33-21.34c0 0 22.83-48.45 70.99-54.25 0 0-0.77 22.48 2.71 35.83 0 0-38.17 13.67-40.7 39.76" fill="#ed7d2b"/><path d="m1682.6 1286.7s23.5-12.48 25.24-31.91c0 0 8.98 14.23 6.38 24.08-2.61 9.86-10.66 21.15-10.66 21.15s0.8-11.87-20.96-13.32" fill="#ed7d2b"/></g></svg>
