<?xml version="1.0" encoding="UTF-8" standalone="no"?>
<!-- Created with Inkscape (http://www.inkscape.org/) -->

<svg
   width="907.02942mm"
   height="608.302mm"
   viewBox="0 0 907.02942 608.302"
   version="1.1"
   id="svg5"
   inkscape:version="1.1.1 (3bf5ae0d25, 2021-09-20)"
   sodipodi:docname="drg_jumpstart.svg"
   xmlns:inkscape="http://www.inkscape.org/namespaces/inkscape"
   xmlns:sodipodi="http://sodipodi.sourceforge.net/DTD/sodipodi-0.dtd"
   xmlns="http://www.w3.org/2000/svg"
   xmlns:svg="http://www.w3.org/2000/svg">
  <sodipodi:namedview
     id="namedview7"
     pagecolor="#ffffff"
     bordercolor="#666666"
     borderopacity="1.0"
     inkscape:pageshadow="2"
     inkscape:pageopacity="0.0"
     inkscape:pagecheckerboard="0"
     inkscape:document-units="mm"
     showgrid="false"
     inkscape:zoom="0.1767767"
     inkscape:cx="1479.2674"
     inkscape:cy="961.66522"
     inkscape:window-width="1920"
     inkscape:window-height="1051"
     inkscape:window-x="0"
     inkscape:window-y="0"
     inkscape:window-maximized="1"
     inkscape:current-layer="layer1" />
  <defs
     id="defs2" />
  <g
     inkscape:label="Plast 1"
     inkscape:groupmode="layer"
     id="layer1"
     transform="translate(285.25785,271.30781)">
    <path
       d="m -216.93827,335.48075 c 0,0 -167.83333,-240.2699 22.60777,-313.982821 156.610756,-60.61781 -64.84726,-231.274069 195.524616,-279.844519 260.373664,-48.56692 432.176454,47.40981 467.503624,154.17448 35.32716,106.768199 -51.47029,208.39996 13.85711,231.11532 65.33092,22.71536 123.26056,64.00448 76.75034,207.02412 l -776.24346,1.51342"
       style="fill:#ebf3fa;fill-opacity:1;fill-rule:nonzero;stroke:none;stroke-width:0.0352778"
       id="path37" />
    <path
       d="m -97.23017,204.2333 c 0,0 37.708066,54.1902 281.06689,54.1902 218.33418,0 277.03994,-44.5629 277.03994,-44.5629 l -558.10683,-9.6273"
       style="fill:#b0d0ff;fill-opacity:1;fill-rule:nonzero;stroke:none;stroke-width:0.0352778"
       id="path39" />
    <path
       d="m -118.70411,333.96381 v 0 c -2.655,-0.127 -4.02308,-4.22275 -2.75025,-8.23384 l 37.783557,-119.0872 20.228632,2.07433 -48.712619,119.4929 c -1.46791,3.60186 -4.05094,5.87022 -6.54932,5.75381"
       style="fill:#98baf4;fill-opacity:1;fill-rule:nonzero;stroke:none;stroke-width:0.0352778"
       id="path41" />
    <path
       d="m 53.820464,333.93206 v 0 c -2.621139,0.42686 -4.804833,-3.29848 -4.388556,-7.48595 L 61.814409,202.12369 82.035631,199.97527 59.041576,326.95411 c -0.691445,3.82764 -2.751667,6.57931 -5.221112,6.97795"
       style="fill:#98baf4;fill-opacity:1;fill-rule:nonzero;stroke:none;stroke-width:0.0352778"
       id="path43" />
    <path
       d="m 294.65481,333.93206 v 0 c 2.62467,0.42686 4.80836,-3.29848 4.39209,-7.48595 l -12.38603,-124.32242 -20.22123,-2.14842 22.99406,126.97884 c 0.69497,3.82764 2.75167,6.57931 5.22111,6.97795"
       style="fill:#98baf4;fill-opacity:1;fill-rule:nonzero;stroke:none;stroke-width:0.0352778"
       id="path45" />
    <path
       d="m 493.62149,333.96381 v 0 c 2.65289,-0.127 4.02167,-4.22275 2.74814,-8.23384 l -37.7825,-119.0872 -20.22828,2.07433 48.71156,119.4929 c 1.46755,3.60186 4.04989,5.87022 6.55108,5.75381"
       style="fill:#98baf4;fill-opacity:1;fill-rule:nonzero;stroke:none;stroke-width:0.0352778"
       id="path47" />
    <path
       d="m 414.34879,189.9458 c -55.01217,-5.91609 -137.85145,-9.68375 -230.51207,-9.68375 -92.660619,0 -175.5009555,3.76766 -230.512773,9.68375 h -69.387517 v 17.19792 c 0,14.84489 134.269704,26.87814 299.90029,26.87814 165.62918,0 299.89994,-12.03325 299.89994,-26.87814 V 189.9458 h -69.38787"
       style="fill:#d66518;fill-opacity:1;fill-rule:nonzero;stroke:none;stroke-width:0.0352778"
       id="path49" />
    <path
       d="m 479.59857,191.33221 c 0,14.84489 -132.41867,26.87815 -295.76185,26.87815 -163.344586,0 -295.7615,-12.03326 -295.7615,-26.87815 0,-14.84841 132.416914,-26.88166 295.7615,-26.88166 163.34318,0 295.76185,12.03325 295.76185,26.88166"
       style="fill:#f99746;fill-opacity:1;fill-rule:nonzero;stroke:none;stroke-width:0.0352778"
       id="path51" />
    <path
       d="m -106.90016,191.33221 c 1.8736,1.30175 7.575548,4.06753 24.437974,7.28134 15.652398,2.9845 37.103405,5.65503 63.75718,7.94103 54.965955,4.71311 126.895586,7.30602 202.541726,7.30602 75.64615,0 147.57401,-2.59291 202.54032,-7.30602 26.65589,-2.286 48.10478,-4.95653 63.75753,-7.94103 16.86278,-3.21381 22.56367,-5.97959 24.44045,-7.28134 -1.87678,-1.30527 -7.57767,-4.07105 -24.44045,-7.28486 -15.65275,-2.9845 -37.10164,-5.65503 -63.75753,-7.94103 -54.96631,-4.71311 -126.89417,-7.30602 -202.54032,-7.30602 -75.64614,0 -147.575771,2.59291 -202.541726,7.30602 -26.653775,2.286 -48.104782,4.95653 -63.75718,7.94103 -16.862426,3.21381 -22.564374,5.97959 -24.437974,7.28486 z m 290.73688,31.2279 c -79.12806,0 -153.540185,-2.80459 -209.528491,-7.89164 -27.336399,-2.48356 -48.836795,-5.38692 -63.903935,-8.62542 -18.948404,-4.07106 -26.677414,-8.33261 -26.677414,-14.71084 0,-6.38175 7.72901,-10.6433 26.677414,-14.71436 15.06714,-3.2385 36.567536,-6.13833 63.903935,-8.62541 55.988306,-5.08706 130.400431,-7.88812 209.528491,-7.88812 79.12806,0 153.53948,2.80106 209.52885,7.88812 27.33675,2.48708 48.83503,5.38691 63.90217,8.62541 18.94769,4.07106 26.67706,8.33261 26.67706,14.71436 0,6.37823 -7.72937,10.63978 -26.67706,14.71084 -15.06714,3.2385 -36.56542,6.14186 -63.90217,8.62542 -55.98937,5.08705 -130.40079,7.89164 -209.52885,7.89164"
       style="fill:#d66518;fill-opacity:1;fill-rule:nonzero;stroke:none;stroke-width:0.0352778"
       id="path53" />
    <path
       d="m 620.64619,336.99417 h -860.69775 c -0.61842,0 -1.1243,-0.508 -1.1243,-1.12536 v -0.77611 c 0,-0.62089 0.50588,-1.12537 1.1243,-1.12537 h 860.69775 c 0.61736,0 1.12536,0.50448 1.12536,1.12537 v 0.77611 c 0,0.61736 -0.508,1.12536 -1.12536,1.12536"
       style="fill:#2e3552;fill-opacity:1;fill-rule:nonzero;stroke:none;stroke-width:0.0352778"
       id="path55" />
    <path
       d="m 290.90733,-149.22786 c 0,0 -10.7562,-2.98803 -19.05706,3.28789 -8.30086,6.27592 -10.1988,19.13114 -14.62969,21.66761 -4.42736,2.53647 -9.6132,8.0892 0,10.6927 9.61319,2.59997 1.54869,6.4523 4.23686,10.20233 2.68817,3.750033 35.02025,15.702143 42.16047,14.806087 7.14023,-0.896055 9.82839,-1.241778 15.50812,-7.941024 5.67619,-6.699253 10.62919,-2.2472 15.17297,-4.473233 4.5473,-2.22602 16.66875,-25.53405 0,-25.23419 -16.66875,0.29986 0.66322,-7.90575 -9.79664,-12.319 -10.45633,-4.41325 -14.53797,-13.97353 -33.59503,-10.68917"
       style="fill:#233862;fill-opacity:1;fill-rule:nonzero;stroke:none;stroke-width:0.0352778"
       id="path57" />
    <path
       d="m 257.89085,-25.102989 c -15.37405,-3.912306 -32.27211,-27.763613 -32.27211,-27.763613 l 4.32859,-3.757083 c 4.48027,5.284611 23.114,14.386278 23.114,14.386278 -0.0988,-4.836583 0.0282,-9.246306 0.33161,-13.260917 2.0708,-27.283835 12.35428,-36.371391 15.16239,-38.368113 0.45155,-0.32103 0.71261,-0.45861 0.71261,-0.45861 0,0 0.0106,0.19755 0.0247,0.57503 0.0423,0.81138 0.11642,2.444746 0.19403,4.684885 0.56797,16.700501 1.25236,67.232393 -11.59581,63.962143"
       style="fill:#ffb27d;fill-opacity:1;fill-rule:nonzero;stroke:none;stroke-width:0.0352778"
       id="path59" />
    <path
       d="m 270.06522,-57.847824 c -0.79728,19.462751 -3.7077,38.73853 -12.18142,37.496752 -10.38931,-1.516944 -13.09158,-11.211278 -13.64545,-18.418529 -0.34219,-4.483806 0.1517,-8.004528 0.1517,-8.004528 0,0 5.11175,-0.02469 5.94078,-0.786695 3.92641,-3.626555 2.75872,-39.193613 4.70252,-42.887197 1.94381,-3.693586 14.55209,-6.064246 14.55209,-6.064246 0,0 1.27353,19.427469 0.47978,38.664443"
       style="fill:#f99746;fill-opacity:1;fill-rule:nonzero;stroke:none;stroke-width:0.0352778"
       id="path61" />
    <path
       d="m 270.06522,-57.847824 c -0.79728,19.462751 -3.7077,38.73853 -12.18142,37.496752 -10.38931,-1.516944 -13.09158,-11.211278 -13.64545,-18.418529 2.55059,-0.127 7.04145,-0.747889 8.82298,-3.471333 2.55411,-3.894667 10.52336,-28.966585 10.52336,-28.966585 0,0 3.13267,5.630333 6.48053,13.359695"
       style="fill:#ed7d2b;fill-opacity:1;fill-rule:nonzero;stroke:none;stroke-width:0.0352778"
       id="path63" />
    <path
       d="m 229.93674,-56.634269 -4.33916,3.785306 c 0,0 -7.7082,-5.633861 -8.07862,-7.941028 v -0.232833 c 0,-2.398889 4.89303,-7.387168 8.95703,-7.570612 0.41628,0 0.78317,0.09172 1.10772,0.275167 2.16606,1.354666 2.42006,6.995583 2.40242,9.913056 -0.004,1.065389 -0.0494,1.770944 -0.0494,1.770944"
       style="fill:#ffb27d;fill-opacity:1;fill-rule:nonzero;stroke:none;stroke-width:0.0352778"
       id="path65" />
    <path
       d="m 342.89619,28.646237 c 0,0 17.95639,-6.025445 22.14387,-10.244668 0,0 -1.53459,-2.631722 -7.35895,-1.686277 -5.82436,0.945444 -15.09536,-3.750028 -16.891,-1.467556 -1.79564,2.286 -3.18558,6.57225 -3.18558,6.57225 l 5.29166,6.826251"
       style="fill:#163560;fill-opacity:1;fill-rule:nonzero;stroke:none;stroke-width:0.0352778"
       id="path67" />
    <path
       d="m 304.77502,89.070022 c 0,0 14.84489,11.761608 20.66926,12.964578 0,0 1.36525,-2.719918 -2.6035,-7.083778 -3.97228,-4.36386 -5.09764,-14.696721 -7.99042,-14.954249 -2.89278,-0.257527 -11.00314,1.319389 -11.00314,1.319389 l 0.9278,7.75406"
       style="fill:#163560;fill-opacity:1;fill-rule:nonzero;stroke:none;stroke-width:0.0352778"
       id="path69" />
    <path
       d="M 305.50527,89.503932 C 263.35186,76.486434 244.2701,62.121322 237.99419,56.526266 c -1.67923,-1.499305 -2.67053,-3.605389 -2.80811,-5.852583 -1.98262,-31.884058 31.80997,-82.581756 31.80997,-82.581756 0,0 17.907,3.869973 19.42747,20.094224 1.52048,16.2242512 -31.14675,53.883281 -31.14675,53.883281 12.77056,-0.864306 38.34342,29.079474 52.52862,37.898919 2.39888,4.092223 -1.31234,4.875389 -2.30012,9.535581"
       style="fill:#98baf4;fill-opacity:1;fill-rule:nonzero;stroke:none;stroke-width:0.0352778"
       id="path71" />
    <path
       d="m 342.95969,28.618015 c -0.0212,0.01058 -0.0423,0.01764 -0.0635,0.02822 -55.43197,25.057807 -75.92131,28.144613 -82.00672,27.92589 -2.69875,-0.102305 -5.15409,-3.615972 -5.15409,-3.615972 -16.764,-32.504946 23.0117,-82.595866 23.0117,-82.595866 0,0 14.75317,-6.180667 22.01333,2.268361 1.33703,1.55575 5.54214,11.154834 5.54214,16.933334 0,10.49514019 -7.97983,22.591891 -17.52247,33.679697 -5.0412,5.859639 -9.05228,9.944806 -9.39447,10.294056 l -0.0212,0.01764 c 17.35314,-15.028334 58.24009,-11.73339 58.24009,-11.73339 0,0 2.54,1.23825 3.48191,2.458862 1.48167,1.919111 1.87325,4.339167 1.87325,4.339167"
       style="fill:#b0d0ff;fill-opacity:1;fill-rule:nonzero;stroke:none;stroke-width:0.0352778"
       id="path73" />
    <path
       d="m 270.09697,-94.995327 c -0.0106,0.004 -0.0176,0.007 -0.0318,0.0106 -0.0529,-0.007 -0.0388,-0.0106 0.0318,-0.0106"
       style="fill:#ffb27d;fill-opacity:1;fill-rule:nonzero;stroke:none;stroke-width:0.0352778"
       id="path75" />
    <path
       d="m 290.90733,-100.9855 c 0.25047,2.254253 0.55386,4.275673 0.68439,5.238753 0.30339,2.16253 -20.18948,0.75495 -21.49475,0.75142 0.91016,-0.39511 3.69005,-9.211033 4.572,-12.576533 1.06539,-4.07811 1.90147,-8.4843 1.90147,-8.4843 l 14.47094,0.91369 0.86078,0.0529 c -0.53269,1.97203 -0.91369,3.83469 -1.17828,5.5633 -0.0317,0.23284 -0.067,0.4692 -0.0988,0.6985 -0.26106,1.91911 -0.0282,5.05884 0.28222,7.84225"
       style="fill:#ffb27d;fill-opacity:1;fill-rule:nonzero;stroke:none;stroke-width:0.0352778"
       id="path77" />
    <path
       d="m 274.57724,-117.51666 c 0,0 -2.34597,-7.44009 -1.87325,-13.1445 0.33867,-4.07106 6.13834,-17.96345 20.07659,-12.05089 0,0 4.09928,1.52752 7.34836,5.2458 2.58233,2.95628 5.90903,8.74536 -2.49767,19.98486 l -2.44475,3.90173 -20.60928,-3.937"
       style="fill:#233862;fill-opacity:1;fill-rule:nonzero;stroke:none;stroke-width:0.0352778"
       id="path79" />
    <path
       d="m 290.90733,-100.9855 c -10.1212,-2.96686 -14.4145,-14.65791 -14.4145,-14.65791 4.27919,0.127 9.85661,3.09739 14.23105,6.11716 -0.0317,0.23284 -0.067,0.4692 -0.0988,0.6985 -0.26106,1.91911 -0.0282,5.05884 0.28222,7.84225"
       style="fill:#ed975d;fill-opacity:1;fill-rule:nonzero;stroke:none;stroke-width:0.0352778"
       id="path81" />
    <path
       d="m 291.62347,-105.09183 c 0,0 -18.28448,-4.52261 -15.29645,-15.86442 2.99156,-11.34533 2.64231,-19.56858 14.44625,-17.16264 11.80042,2.40595 12.91873,7.33073 12.84112,11.35945 -0.0776,4.02872 -7.15787,22.54955 -11.99092,21.66761"
       style="fill:#ffb27d;fill-opacity:1;fill-rule:nonzero;stroke:none;stroke-width:0.0352778"
       id="path83" />
    <path
       d="m 299.13764,-136.19978 c 0,0 -8.50548,11.98387 -16.67934,11.92742 -8.17033,-0.06 -10.94669,-2.98803 -10.94669,-2.98803 0,0 7.10494,-3.10797 10.47397,-10.922 0,0 15.07067,-5.34811 17.15206,1.98261"
       style="fill:#233862;fill-opacity:1;fill-rule:nonzero;stroke:none;stroke-width:0.0352778"
       id="path85" />
    <path
       d="m 297.61716,-135.44836 c 0,0 2.93511,3.95464 3.07975,7.08378 0.14111,3.12914 -1.02305,9.18281 0.762,9.44033 0,0 6.15245,-8.05039 3.28436,-14.28397 -3.04094,-6.61106 -7.12611,-2.24014 -7.12611,-2.24014"
       style="fill:#233862;fill-opacity:1;fill-rule:nonzero;stroke:none;stroke-width:0.0352778"
       id="path87" />
    <path
       d="m 298.18866,-134.81689 c 0,0 -7.239,12.99281 -18.0728,14.90134 0,0 11.91683,-6.00428 15.17297,-14.986 3.25261,-8.98173 2.89983,0.0847 2.89983,0.0847"
       style="fill:#233862;fill-opacity:1;fill-rule:nonzero;stroke:none;stroke-width:0.0352778"
       id="path89" />
    <path
       d="m 288.7695,-112.36611 c 0,0 0.2293,1.72861 1.32997,2.13431 1.10066,0.40922 4.02519,1.15005 4.32153,0.96661 0.29633,-0.18345 1.39347,-1.53106 1.39347,-1.53106 0,0 -4.60728,-1.76741 -7.04497,-1.56986"
       style="fill:#ffffff;fill-opacity:1;fill-rule:nonzero;stroke:none;stroke-width:0.0352778"
       id="path91" />
    <path
       d="m 314.233,-51.508407 43.51867,11.239501 v 5.08 c 0,0 -43.30701,-0.508 -46.09748,-5.330473 -2.794,-4.826 2.57881,-10.989028 2.57881,-10.989028"
       style="fill:#ffb27d;fill-opacity:1;fill-rule:nonzero;stroke:none;stroke-width:0.0352778"
       id="path93" />
    <path
       d="m 335.59017,-51.508407 c 2.81516,3.996972 1.26294,11.751028 -4.63903,17.991668 -3.66889,3.877028 -8.636,6.170083 -16.71814,4.977694 -3.52073,-0.518583 -13.36675,-6.078361 -14.40039,-12.855223 -0.18697,-1.227666 -0.28928,-1.947333 -0.28928,-1.947333 0,0 -0.51153,5.704417 -0.62794,6.558139 -0.49037,3.654778 2.20838,8.269112 4.57552,11.694584 0.85373,1.234723 0.31398,2.938639 -1.09008,3.460751 -7.35189,2.716389 -27.66131,8.875889 -41.92059,0.28575 0,0 -9.94127,-54.359532 -6.31472,-61.556199 1.79917,-3.573639 11.90272,-10.537471 15.41992,-13.613691 0.79022,-0.69145 1.59455,-2.77989 1.37583,-4.120453 -0.17639,-1.13594 1.12889,-3.05153 2.2225,-2.70228 2.11667,0.67734 8.10331,3.640673 12.31548,2.51178 2.09902,-0.55739 4.75897,-2.9845 6.7945,-2.43064 2.48355,0.68086 -0.14112,6.663973 1.26647,6.741593 1.9438,0.0953 12.42836,2.19427 13.3103,3.88408 0.30339,0.589138 3.31612,8.568972 7.09437,19.13114 0,0 0.004,0.0071 0.007,0.02469 7.08731,19.812001 17.4872,16.093723 21.61823,21.963946"
       style="fill:#f99746;fill-opacity:1;fill-rule:nonzero;stroke:none;stroke-width:0.0352778"
       id="path95" />
    <path
       d="m 357.75167,-40.268906 c 0,0 7.98336,-3.933473 11.15836,-4.314473 3.175,-0.381 8.50547,-0.508 8.50547,0 0,0.508 -5.71147,4.056945 -7.23547,4.314473 -1.524,0.257527 -4.445,2.413 -3.556,2.667 0.889,0.254 5.588,-0.821973 5.6515,0 0.0635,0.8255 -2.8575,1.3335 -3.3655,1.9685 -0.508,0.635 -2.286,1.397 -5.1435,1.016 -2.85397,-0.381 -6.01486,-0.5715 -6.01486,-0.5715 v -5.08"
       style="fill:#ffb27d;fill-opacity:1;fill-rule:nonzero;stroke:none;stroke-width:0.0352778"
       id="path97" />
    <path
       d="m 27.460296,161.73536 c 2.421819,5.63387 9.431514,21.31131 14.123458,25.37884 0,0 3.227564,-2.1837 1.522237,-9.54264 -1.705681,-7.35894 4.01073,-23.64317 0.9398,-25.73867 -3.070931,-2.09903 -9.179631,0.52917 -9.179631,0.52917 l -6.627989,5.88786 c -0.983545,0.87489 -1.297517,2.27894 -0.777875,3.48544"
       style="fill:#163560;fill-opacity:1;fill-rule:nonzero;stroke:none;stroke-width:0.0352778"
       id="path99" />
    <path
       d="m -61.450293,83.168219 c -1.22273,5.944311 -4.40584,22.630701 -2.90019,28.589111 0,0 3.85481,0.0529 6.6354,-6.88269 2.7806,-6.93914 16.633827,-16.9157 15.328549,-20.358811 -1.304925,-3.43958 -6.283329,-4.37444 -6.283329,-4.37444 l -10.17658,0.63852 c -1.29293,0.1517 -2.34138,1.11478 -2.60385,2.38831"
       style="fill:#163560;fill-opacity:1;fill-rule:nonzero;stroke:none;stroke-width:0.0352778"
       id="path101" />
    <path
       d="m 75.656445,-2.7190633 c 0,0 4.274609,80.4756723 0.04516,99.9772333 -4.229806,19.50155 -29.309485,61.98306 -29.309485,61.98306 0,0 -9.578623,-0.42687 -12.692239,-6.59695 0,0 4.630208,-25.99267 9.836855,-44.42531 C 46.350139,98.26358 51.306315,93.21533 49.833114,88.2588 48.456571,83.630359 32.246785,24.000327 32.246785,24.000327 l 43.40966,-26.7193903"
       style="fill:#f99746;fill-opacity:1;fill-rule:nonzero;stroke:none;stroke-width:0.0352778"
       id="path103" />
    <path
       d="m 76.367998,-10.892925 c 0,0 -41.088735,108.884865 -49.930053,115.495925 -8.841317,6.61106 -43.676361,0.10936 -73.357678,-8.0257 0,0 -3.19934,-1.95438 -3.19934,-8.91822 0,-2.144891 1.06186,-7.704671 1.06186,-7.704671 0,0 35.224867,-1.51694 51.9856928,0.26812 3.945467,0.4198 6.0706,-27.248561 10.3815452,-51.438535 C 17.309819,6.3367427 17.611092,0.76990867 27.25639,-6.8924253 36.901335,-14.554759 76.367998,-10.892925 76.367998,-10.892925"
       style="fill:#f99746;fill-opacity:1;fill-rule:nonzero;stroke:none;stroke-width:0.0352778"
       id="path105" />
    <path
       d="m 95.872377,-149.52402 c 0,0 -4.180417,-2.72344 -4.907139,-4.36033 -0.726722,-1.63689 -3.633964,-4.63197 -2.634545,-5.17878 0.99942,-0.5468 2.906184,1.90853 4.08799,1.63336 1.181805,-0.27164 2.180166,-8.72066 3.453694,-8.81239 1.27,-0.0882 4.543773,1.45345 4.543773,4.6355 0,3.17853 -1.001884,11.35592 0,12.90109 0.99837,1.54517 -4.543773,-0.81845 -4.543773,-0.81845"
       style="fill:#ffb27d;fill-opacity:1;fill-rule:nonzero;stroke:none;stroke-width:0.0352778"
       id="path107" />
    <path
       d="m -16.009338,-143.33982 c 0,0 0.280811,-4.46264 -0.03493,-6.223 -0.315736,-1.76036 0.409575,-5.87375 -0.723547,-5.76439 -1.133123,0.10936 -1.336676,3.21028 -2.467328,3.64419 -1.131006,0.43745 -6.69784,-5.99722 -7.802034,-5.35869 -1.103842,0.63853 -2.945342,3.75355 -1.161698,6.38528 1.783998,2.63172 7.198079,8.84061 7.237237,10.68211 0.03916,1.83797 4.952295,-3.3655 4.952295,-3.3655"
       style="fill:#ffb27d;fill-opacity:1;fill-rule:nonzero;stroke:none;stroke-width:0.0352778"
       id="path109" />
    <path
       d="m 63.245017,-77.737263 c -3.733095,1.964973 -7.376231,2.088445 -10.534651,1.418167 -2.88925,-0.606778 -5.369984,-1.883833 -7.136695,-3.012722 -1.813278,-1.157112 -2.879372,-2.169584 -2.879372,-2.169584 0,0 0.126294,-0.179916 0.338667,-0.53975 1.102783,-1.887361 4.447116,-8.66775 2.9591,-19.565058 -0.01976,-0.14111 1.059391,0.06 2.68993,0.4445 4.852106,1.15006 14.60606,3.915835 15.03786,4.039307 0.0099,0 0.01658,0 0.01658,0 0,0 0.119592,2.293056 0.521406,6.39939 0.03316,0.363361 0.06985,0.740833 0.109361,1.132416 0.05009,0.483306 0.09984,0.994834 0.159456,1.520473 0.451908,4.268611 -1.281642,10.332861 -1.281642,10.332861"
       style="fill:#ffb27d;fill-opacity:1;fill-rule:nonzero;stroke:none;stroke-width:0.0352778"
       id="path111" />
    <path
       d="m 64.257842,-90.723013 c -7.243234,1.661583 -18.053404,-9.031112 -18.053404,-9.031112 0.790575,-0.589135 1.621014,-1.054805 2.477558,-1.407585 4.852106,1.15006 14.60606,3.915835 15.03786,4.039307 0.0099,0 0.01658,0 0.01658,0 0,0 0.119592,2.293056 0.521406,6.39939"
       style="fill:#ed975d;fill-opacity:1;fill-rule:nonzero;stroke:none;stroke-width:0.0352778"
       id="path113" />
    <path
       d="m 66.718467,-97.700958 c 0,0 -2.97815,1.068916 -6.77545,1.580444 -5.552723,0.747889 -12.854518,0.306917 -15.148279,-6.409976 -3.863622,-11.31005 -8.798984,-18.09044 2.570692,-22.7083 6.086122,-2.47298 9.980084,-2.6035 12.624859,-1.65806 2.297642,0.81139 3.652308,2.44122 4.677833,4.04989 2.208037,3.46075 6.649509,23.166918 2.050345,25.146002"
       style="fill:#ffb27d;fill-opacity:1;fill-rule:nonzero;stroke:none;stroke-width:0.0352778"
       id="path115" />
    <path
       d="m 73.617742,-121.95443 c -6.583539,4.73075 -15.690498,0.0776 -18.521187,1.33703 -2.827514,1.25588 -3.335867,6.00075 -3.386667,7.50711 -0.0508,1.50636 -0.249061,2.77989 -4.089047,1.87677 -0.629356,-0.14816 -1.082675,-0.10583 -1.394531,0.0811 -1.593144,0.94545 0.442736,5.52803 1.05657,6.51934 0,0 0.883708,3.28083 -1.077031,4.878916 -0.237419,0.1905 -4.089047,1.87325 -13.371689,-12.333116 -1.459089,-2.22955 -2.851856,-7.25311 -0.598664,-12.08616 2.250369,-4.84012 11.658247,-9.51442 19.635259,-11.99092 2.990145,-0.92781 5.206295,-0.89606 6.940198,-0.25753 2.892425,1.05481 4.434769,3.78883 5.964767,6.53345 2.566105,4.61433 8.842022,7.93397 8.842022,7.93397"
       style="fill:#233862;fill-opacity:1;fill-rule:nonzero;stroke:none;stroke-width:0.0352778"
       id="path117" />
    <path
       d="m 63.606261,-134.01238 -0.04022,-0.0529 c 0.02469,0.0247 0.03704,0.0423 0.04022,0.0529"
       style="fill:#7f2722;fill-opacity:1;fill-rule:nonzero;stroke:none;stroke-width:0.0352778"
       id="path119" />
    <path
       d="m 106.55802,-115.26577 c 0.14816,-8.89705 -2.99862,-33.45744 -4.68137,-33.84197 l -8.791217,-1.32292 c 0,0 -2.304345,20.33764 -3.689703,29.26645 -3.925006,25.283585 -25.010183,35.655252 -25.052869,35.676419 -3.52e-4,0 -0.0021,0 -0.0021,0 -8.186209,4.600223 -19.211927,-1.615722 -19.211927,-1.615722 -0.252588,0.04586 -0.494947,0.102305 -0.737658,0.155222 -6.342944,-1.721556 -19.126553,-12.62239 -32.954033,-27.749499 -9.7761782,-10.69975 -20.7595622,-25.92211 -27.33146,-30.861 -0.0085,-0.007 -6.644217,4.62844 -6.581422,4.80483 4.916664,13.97 17.5768008,39.09836 17.5768008,39.10189 0.02011,0.10231 26.6721192,39.243003 26.6756462,39.246531 2.427464,2.670527 4.885267,34.903835 -7.44467,66.8161147 -4.6870062,12.1320283 47.494828,25.4635013 71.206435,17.4695563 0,0 0.95885,-31.3760573 -0.207433,-85.474533 v 0 c 20.95181,-20.94089 20.98709,-37.151029 21.22698,-51.671369"
       style="fill:#b0d0ff;fill-opacity:1;fill-rule:nonzero;stroke:none;stroke-width:0.0352778"
       id="path121" />
    <path
       d="m 66.804898,-104.99993 c 0,0 0.238125,1.46403 -3.165828,2.63172 0,0 -2.857501,0.98072 -3.379259,-0.52211 0,0 2.269772,-2.159 6.545087,-2.10961"
       style="fill:#ffffff;fill-opacity:1;fill-rule:nonzero;stroke:none;stroke-width:0.0352778"
       id="path123" />
    <path
       d="M 47.583446,80.190779 C 47.211266,78.839639 62.205381,25.668966 62.205381,25.668966 L 44.50158,68.954799 47.583446,80.190779"
       style="fill:#ed7d2b;fill-opacity:1;fill-rule:nonzero;stroke:none;stroke-width:0.0352778"
       id="path125" />
    <path
       d="m 559.30519,333.96733 h -36.29731 c -1.94733,-1.651 1.34409,-5.3975 4.78367,-5.6515 1.49225,-0.10936 3.38314,0.20109 5.54214,0.65617 0.49741,-6.63222 3.35139,-36.45958 14.10053,-35.26014 12.08969,1.34056 0,13.13392 -3.41489,20.11539 -2.53295,5.17172 -5.20348,12.58711 -6.42409,16.08667 0.98073,0.21519 1.99673,0.42333 3.03742,0.61383 1.60161,-4.92125 7.56356,-21.46653 15.14475,-20.50344 8.90059,1.12888 5.32342,7.76463 -0.98778,11.70163 -4.62844,2.89631 -10.31169,7.01323 -13.01044,9.00289 2.286,0.37042 4.6743,0.62442 7.09789,0.56798 6.21947,-0.14817 9.25336,1.68275 10.42811,2.67052"
       style="fill:#82b378;fill-opacity:1;fill-rule:nonzero;stroke:none;stroke-width:0.0352778"
       id="path195" />
    <path
       d="m -56.805362,333.96733 h 36.30013 c 1.945217,-1.651 -1.3462,-5.3975 -4.785078,-5.6515 -1.493661,-0.10936 -3.382433,0.20109 -5.540728,0.65617 -0.49918,-6.63222 -3.352095,-36.45958 -14.102998,-35.26014 -12.088284,1.34056 0,13.13392 3.417358,20.11539 2.531181,5.17172 5.201709,12.58711 6.421967,16.08667 -0.981428,0.21519 -1.997428,0.42333 -3.0353,0.61383 -1.602317,-4.92125 -7.563909,-21.46653 -15.145104,-20.50344 -8.901642,1.12888 -5.323769,7.76463 0.985662,11.70163 4.628444,2.89631 10.3124,7.01323 13.013267,9.00289 -2.28847,0.37042 -4.676775,0.62442 -7.0993,0.56798 -6.218062,-0.14817 -9.253362,1.68275 -10.429876,2.67052"
       style="fill:#82b378;fill-opacity:1;fill-rule:nonzero;stroke:none;stroke-width:0.0352778"
       id="path197" />
  </g>
</svg>
