<?xml version="1.0" encoding="UTF-8" standalone="no"?>
<!-- Created with Inkscape (http://www.inkscape.org/) -->

<svg
   width="58.220203mm"
   height="62.127697mm"
   viewBox="0 0 58.220203 62.127697"
   version="1.1"
   id="svg2839"
   inkscape:version="1.1.1 (3bf5ae0d25, 2021-09-20)"
   sodipodi:docname="roles.svg"
   xmlns:inkscape="http://www.inkscape.org/namespaces/inkscape"
   xmlns:sodipodi="http://sodipodi.sourceforge.net/DTD/sodipodi-0.dtd"
   xmlns:xlink="http://www.w3.org/1999/xlink"
   xmlns="http://www.w3.org/2000/svg"
   xmlns:svg="http://www.w3.org/2000/svg">
  <sodipodi:namedview
     id="namedview2841"
     pagecolor="#ffffff"
     bordercolor="#666666"
     borderopacity="1.0"
     inkscape:pageshadow="2"
     inkscape:pageopacity="0.0"
     inkscape:pagecheckerboard="0"
     inkscape:document-units="mm"
     showgrid="false"
     inkscape:zoom="2.2449495"
     inkscape:cx="142.7649"
     inkscape:cy="151.89651"
     inkscape:window-width="1920"
     inkscape:window-height="1051"
     inkscape:window-x="0"
     inkscape:window-y="0"
     inkscape:window-maximized="1"
     inkscape:current-layer="layer1" />
  <defs
     id="defs2836">
    <clipPath
       clipPathUnits="userSpaceOnUse"
       id="clipPath1214">
      <path
         d="m 6477.93,3110.3 c -14.06,0 -25.46,11.4 -25.46,25.46 0,14.07 11.4,25.47 25.46,25.47 14.07,0 25.46,-11.4 25.46,-25.47 0,-14.06 -11.39,-25.46 -25.46,-25.46"
         id="path1212" />
    </clipPath>
    <linearGradient
       x1="0"
       y1="0"
       x2="1"
       y2="0"
       gradientUnits="userSpaceOnUse"
       gradientTransform="matrix(0,289.243,289.243,0,6477.93,3087.72)"
       spreadMethod="pad"
       id="linearGradient1222">
      <stop
         style="stop-opacity:1;stop-color:#607fc2"
         offset="0"
         id="stop1216" />
      <stop
         style="stop-opacity:1;stop-color:#607fc2"
         offset="0.128986"
         id="stop1218" />
      <stop
         style="stop-opacity:1;stop-color:#86aadf"
         offset="1"
         id="stop1220" />
    </linearGradient>
    <clipPath
       clipPathUnits="userSpaceOnUse"
       id="clipPath1232">
      <path
         d="m 6415.24,3154.33 c -2.15,0 -4.34,0.38 -6.47,1.17 -9.65,3.57 -14.58,14.29 -10.99,23.94 12.35,33.35 44.56,55.77 80.15,55.77 35.57,0 67.78,-22.4 80.15,-55.72 3.58,-9.64 -1.34,-20.36 -10.97,-23.95 -2.14,-0.79 -4.34,-1.17 -6.49,-1.17 -7.57,0 -14.67,4.65 -17.46,12.16 -6.99,18.79 -25.16,31.42 -45.23,31.42 -20.08,0 -38.26,-12.64 -45.23,-31.45 -2.77,-7.52 -9.89,-12.17 -17.46,-12.17"
         id="path1230" />
    </clipPath>
    <clipPath
       clipPathUnits="userSpaceOnUse"
       id="clipPath1250">
      <path
         d="m 6588.42,3199.81 c -6.21,0 -12.28,3.11 -15.83,8.77 -20.51,32.94 -55.91,52.6 -94.66,52.6 -38.73,0 -74.12,-19.65 -94.64,-52.57 -3.54,-5.66 -9.62,-8.76 -15.83,-8.76 -3.37,0 -6.77,0.91 -9.84,2.81 -8.73,5.45 -11.38,16.94 -5.94,25.67 27.37,43.9 74.57,70.1 126.25,70.1 51.71,0 98.91,-26.22 126.29,-70.14 5.43,-8.73 2.77,-20.23 -5.96,-25.67 -3.06,-1.91 -6.47,-2.81 -9.84,-2.81"
         id="path1248" />
    </clipPath>
    <linearGradient
       x1="0"
       y1="0"
       x2="1"
       y2="0"
       gradientUnits="userSpaceOnUse"
       gradientTransform="matrix(0,289.243,289.243,0,6477.95,3087.72)"
       spreadMethod="pad"
       id="linearGradient1258">
      <stop
         style="stop-opacity:1;stop-color:#607fc2"
         offset="0"
         id="stop1252" />
      <stop
         style="stop-opacity:1;stop-color:#607fc2"
         offset="0.128986"
         id="stop1254" />
      <stop
         style="stop-opacity:1;stop-color:#86aadf"
         offset="1"
         id="stop1256" />
    </linearGradient>
    <clipPath
       clipPathUnits="userSpaceOnUse"
       id="clipPath1268">
      <path
         d="m 6634.23,3243.47 c -5.78,0 -11.48,2.68 -15.11,7.74 -32.65,45.32 -85.42,72.37 -141.19,72.37 -55.75,0 -108.51,-27.05 -141.16,-72.34 -3.63,-5.06 -9.32,-7.75 -15.1,-7.75 -3.78,0 -7.59,1.15 -10.89,3.53 -8.34,6 -10.24,17.65 -4.22,25.99 39.62,54.99 103.68,87.82 171.37,87.82 67.71,0 131.78,-32.84 171.4,-87.85 6.02,-8.34 4.13,-19.99 -4.22,-26 -3.3,-2.37 -7.1,-3.51 -10.88,-3.51"
         id="path1266" />
    </clipPath>
    <clipPath
       clipPathUnits="userSpaceOnUse"
       id="clipPath1328">
      <path
         d="m 6356.18,2239.53 v 0 l -15.93,64.18 c 0.01,0 0,0 0.01,0 l 15.92,-64.18"
         id="path1326" />
    </clipPath>
    <linearGradient
       x1="0"
       y1="0"
       x2="1"
       y2="0"
       gradientUnits="userSpaceOnUse"
       gradientTransform="matrix(0,-457.87,-457.87,0,6106.52,2478.7)"
       spreadMethod="pad"
       id="linearGradient1336">
      <stop
         style="stop-opacity:1;stop-color:#8a9fcd"
         offset="0"
         id="stop1330" />
      <stop
         style="stop-opacity:1;stop-color:#8a9fcd"
         offset="0.128986"
         id="stop1332" />
      <stop
         style="stop-opacity:1;stop-color:#b1caec"
         offset="1"
         id="stop1334" />
    </linearGradient>
    <clipPath
       clipPathUnits="userSpaceOnUse"
       id="clipPath1346">
      <path
         d="m 5856.87,2239.53 15.92,64.18 c 9.55,1.09 18.86,2.64 27.92,4.58 l -16.32,-63.97 c -8.94,-1.97 -18.12,-3.58 -27.52,-4.79 m 499.31,0 c -9.94,1.28 -19.63,3.01 -29.06,5.13 l -16.31,63.96 c 9.53,-2.1 19.36,-3.76 29.44,-4.91 l 15.92,-64.18 m -459.54,7.74 16.3,63.92 c 121.13,31.48 193.59,132.03 193.59,132.03 0,0 71.86,-99.69 192.04,-131.62 l 16.3,-63.92 c -130.38,34.81 -208.34,142.85 -208.34,142.85 0,0 -78.57,-108.89 -209.89,-143.26"
         id="path1344" />
    </clipPath>
    <linearGradient
       x1="0"
       y1="0"
       x2="1"
       y2="0"
       gradientUnits="userSpaceOnUse"
       gradientTransform="matrix(0,-457.87,-457.87,0,6106.52,2478.7)"
       spreadMethod="pad"
       id="linearGradient1354">
      <stop
         style="stop-opacity:1;stop-color:#23396a"
         offset="0"
         id="stop1348" />
      <stop
         style="stop-opacity:1;stop-color:#23396a"
         offset="0.128986"
         id="stop1350" />
      <stop
         style="stop-opacity:1;stop-color:#25478d"
         offset="1"
         id="stop1352" />
    </linearGradient>
    <clipPath
       clipPathUnits="userSpaceOnUse"
       id="clipPath1364">
      <path
         d="m 5884.39,2244.32 16.32,63.97 c 4.12,0.89 8.21,1.86 12.22,2.9 l -16.3,-63.92 c -4.03,-1.05 -8.11,-2.04 -12.24,-2.95"
         id="path1362" />
    </clipPath>
    <linearGradient
       x1="0"
       y1="0"
       x2="1"
       y2="0"
       gradientUnits="userSpaceOnUse"
       gradientTransform="matrix(0,-457.87,-457.87,0,6106.52,2478.7)"
       spreadMethod="pad"
       id="linearGradient1372">
      <stop
         style="stop-opacity:1;stop-color:#2b57af"
         offset="0"
         id="stop1366" />
      <stop
         style="stop-opacity:1;stop-color:#2b57af"
         offset="0.128986"
         id="stop1368" />
      <stop
         style="stop-opacity:1;stop-color:#3764b8"
         offset="1"
         id="stop1370" />
    </linearGradient>
    <clipPath
       clipPathUnits="userSpaceOnUse"
       id="clipPath1382">
      <path
         d="m 6327.12,2244.66 c -4.13,0.94 -8.22,1.94 -12.26,3.02 l -16.3,63.92 c 4.03,-1.07 8.11,-2.07 12.25,-2.98 l 16.31,-63.96"
         id="path1380" />
    </clipPath>
    <clipPath
       clipPathUnits="userSpaceOnUse"
       id="clipPath1402">
      <path
         d="m 6370.59,2804.47 -29.3,49.53 v 0 l 29.3,-49.53 v 0"
         id="path1400" />
    </clipPath>
    <linearGradient
       x1="0"
       y1="0"
       x2="1"
       y2="0"
       gradientUnits="userSpaceOnUse"
       gradientTransform="matrix(198.291,-246.763,-246.763,-198.291,6284.45,3028.54)"
       spreadMethod="pad"
       id="linearGradient1410">
      <stop
         style="stop-opacity:1;stop-color:#8a9fcd"
         offset="0"
         id="stop1404" />
      <stop
         style="stop-opacity:1;stop-color:#8a9fcd"
         offset="0.128986"
         id="stop1406" />
      <stop
         style="stop-opacity:1;stop-color:#b1caec"
         offset="1"
         id="stop1408" />
    </linearGradient>
    <clipPath
       clipPathUnits="userSpaceOnUse"
       id="clipPath1420">
      <path
         d="m 6341.29,2854 v 0 l -18.63,31.48 v 0 l 18.63,-31.48 m 101.24,68.68 c -2.66,5.11 -5.33,10.16 -8.02,15.15 2.69,-4.99 5.36,-10.05 8.03,-15.15 v 0 m -8.04,15.17 c -0.05,0.1 -0.1,0.19 -0.15,0.28 0.05,-0.09 0.1,-0.19 0.15,-0.28"
         id="path1418" />
    </clipPath>
    <linearGradient
       x1="0"
       y1="0"
       x2="1"
       y2="0"
       gradientUnits="userSpaceOnUse"
       gradientTransform="matrix(198.291,-246.763,-246.763,-198.291,6284.45,3028.54)"
       spreadMethod="pad"
       id="linearGradient1428">
      <stop
         style="stop-opacity:1;stop-color:#698acf"
         offset="0"
         id="stop1422" />
      <stop
         style="stop-opacity:1;stop-color:#698acf"
         offset="0.128986"
         id="stop1424" />
      <stop
         style="stop-opacity:1;stop-color:#86aadf"
         offset="1"
         id="stop1426" />
    </linearGradient>
    <clipPath
       clipPathUnits="userSpaceOnUse"
       id="clipPath1438">
      <path
         d="m 6370.59,2804.47 -29.3,49.53 -18.63,31.48 6.94,188.59 c 31.49,-14.26 69.07,-69.65 104.75,-135.94 0.05,-0.09 0.1,-0.18 0.15,-0.28 0,0 0.01,-0.01 0.01,-0.02 2.69,-4.99 5.36,-10.04 8.02,-15.15 l -71.94,-118.21"
         id="path1436" />
    </clipPath>
    <linearGradient
       x1="0"
       y1="0"
       x2="1"
       y2="0"
       gradientUnits="userSpaceOnUse"
       gradientTransform="matrix(198.291,-246.763,-246.763,-198.291,6284.45,3028.54)"
       spreadMethod="pad"
       id="linearGradient1446">
      <stop
         style="stop-opacity:1;stop-color:#2b57af"
         offset="0"
         id="stop1440" />
      <stop
         style="stop-opacity:1;stop-color:#2b57af"
         offset="0.128986"
         id="stop1442" />
      <stop
         style="stop-opacity:1;stop-color:#3764b8"
         offset="1"
         id="stop1444" />
    </linearGradient>
    <clipPath
       clipPathUnits="userSpaceOnUse"
       id="clipPath1458">
      <path
         d="m 5890.24,2889.06 c -17.64,6.6 -39.36,15.35 -62.93,26.26 l -20.79,50.36 c 24.77,54.99 51.14,97.28 76.6,108.58 v 0 c 0.05,0.02 0.1,0.04 0.15,0.06 v 0 c 0.05,0.02 0.1,0.05 0.15,0.07 v 0 0 0 l 6.82,-185.33"
         id="path1456" />
    </clipPath>
    <linearGradient
       x1="0"
       y1="0"
       x2="1"
       y2="0"
       gradientUnits="userSpaceOnUse"
       gradientTransform="matrix(-253.358,-202.34,-202.34,253.358,5945.51,2997.65)"
       spreadMethod="pad"
       id="linearGradient1466">
      <stop
         style="stop-opacity:1;stop-color:#2b57af"
         offset="0"
         id="stop1460" />
      <stop
         style="stop-opacity:1;stop-color:#2b57af"
         offset="0.128986"
         id="stop1462" />
      <stop
         style="stop-opacity:1;stop-color:#3764b8"
         offset="1"
         id="stop1464" />
    </linearGradient>
    <clipPath
       clipPathUnits="userSpaceOnUse"
       id="clipPath1482">
      <path
         d="m 6156.43,3088.13 -101.75,-2.6 -1.68,109.08 101.77,1.57 z"
         id="path1480" />
    </clipPath>
    <linearGradient
       x1="0"
       y1="0"
       x2="1"
       y2="0"
       gradientUnits="userSpaceOnUse"
       gradientTransform="matrix(13.0018,69.8297,69.8297,-13.0018,6094.74,3087.76)"
       spreadMethod="pad"
       id="linearGradient1490">
      <stop
         style="stop-opacity:1;stop-color:#f57c89"
         offset="0"
         id="stop1484" />
      <stop
         style="stop-opacity:1;stop-color:#f57c89"
         offset="0.193975"
         id="stop1486" />
      <stop
         style="stop-opacity:1;stop-color:#f3606a"
         offset="1"
         id="stop1488" />
    </linearGradient>
    <clipPath
       clipPathUnits="userSpaceOnUse"
       id="clipPath1514">
      <path
         d="m 5698.43,2284.92 c -0.27,12.26 -0.73,25.79 -1.49,39.84 l 106.16,92.05 c 50.86,44.1 85.24,102.73 98.38,166.88 l 0.11,-2.88 -21.41,-127.68 c -14.75,-21.69 -32.45,-41.63 -52.77,-59.26 L 5711.3,2293.19 c -3.95,-3.42 -8.29,-6.17 -12.87,-8.27"
         id="path1512" />
    </clipPath>
    <linearGradient
       x1="0"
       y1="0"
       x2="1"
       y2="0"
       gradientUnits="userSpaceOnUse"
       gradientTransform="matrix(0,-666.685,-666.685,0,5675.39,2889.45)"
       spreadMethod="pad"
       id="linearGradient1522">
      <stop
         style="stop-opacity:1;stop-color:#8a9fcd"
         offset="0"
         id="stop1516" />
      <stop
         style="stop-opacity:1;stop-color:#8a9fcd"
         offset="0.128986"
         id="stop1518" />
      <stop
         style="stop-opacity:1;stop-color:#b1caec"
         offset="1"
         id="stop1520" />
    </linearGradient>
    <clipPath
       clipPathUnits="userSpaceOnUse"
       id="clipPath1532">
      <path
         d="m 5675.39,2279.93 c -12.86,0 -25.71,4.42 -35.91,13.26 l -20.51,17.79 -0.94,2.84 c 9.69,-7.31 21.37,-10.96 33.05,-10.96 12.85,0 25.7,4.42 35.91,13.27 l 9.95,8.63 c 0.76,-14.05 1.22,-27.58 1.49,-39.84 -7.27,-3.33 -15.16,-4.99 -23.04,-4.99 m -71.45,44.08 -66.76,57.89 c -0.12,0.73 -0.25,1.45 -0.37,2.18 l 66.26,-57.46 0.87,-2.61"
         id="path1530" />
    </clipPath>
    <linearGradient
       x1="0"
       y1="0"
       x2="1"
       y2="0"
       gradientUnits="userSpaceOnUse"
       gradientTransform="matrix(0,-666.685,-666.685,0,5675.39,2889.45)"
       spreadMethod="pad"
       id="linearGradient1540">
      <stop
         style="stop-opacity:1;stop-color:#6d9b96"
         offset="0"
         id="stop1534" />
      <stop
         style="stop-opacity:1;stop-color:#6d9b96"
         offset="0.128986"
         id="stop1536" />
      <stop
         style="stop-opacity:1;stop-color:#89c6bb"
         offset="1"
         id="stop1538" />
    </linearGradient>
    <clipPath
       clipPathUnits="userSpaceOnUse"
       id="clipPath1550">
      <path
         d="m 5618.97,2310.98 -15.03,13.03 -0.87,2.61 12.1,-10.49 c 0.93,-0.81 1.89,-1.58 2.86,-2.31 l 0.94,-2.84"
         id="path1548" />
    </clipPath>
    <linearGradient
       x1="0"
       y1="0"
       x2="1"
       y2="0"
       gradientUnits="userSpaceOnUse"
       gradientTransform="matrix(0,-666.685,-666.685,0,5675.39,2889.45)"
       spreadMethod="pad"
       id="linearGradient1558">
      <stop
         style="stop-opacity:1;stop-color:#507978"
         offset="0"
         id="stop1552" />
      <stop
         style="stop-opacity:1;stop-color:#507978"
         offset="0.128986"
         id="stop1554" />
      <stop
         style="stop-opacity:1;stop-color:#679d99"
         offset="1"
         id="stop1556" />
    </linearGradient>
    <clipPath
       clipPathUnits="userSpaceOnUse"
       id="clipPath1568">
      <path
         d="m 5537.18,2381.9 -13.81,11.97 c -7.5,6.5 -14.64,13.32 -21.4,20.42 l 34.84,-30.21 c 0.12,-0.73 0.25,-1.45 0.37,-2.18"
         id="path1566" />
    </clipPath>
    <linearGradient
       x1="0"
       y1="0"
       x2="1"
       y2="0"
       gradientUnits="userSpaceOnUse"
       gradientTransform="matrix(0,-666.685,-666.685,0,5675.39,2889.45)"
       spreadMethod="pad"
       id="linearGradient1576">
      <stop
         style="stop-opacity:1;stop-color:#49955c"
         offset="0"
         id="stop1570" />
      <stop
         style="stop-opacity:1;stop-color:#49955c"
         offset="0.128986"
         id="stop1572" />
      <stop
         style="stop-opacity:1;stop-color:#5cc172"
         offset="1"
         id="stop1574" />
    </linearGradient>
    <clipPath
       clipPathUnits="userSpaceOnUse"
       id="clipPath1586">
      <path
         d="m 5880.18,2453.13 21.41,127.68 -0.11,2.88 c 1.81,8.84 3.22,17.78 4.21,26.8 l 27.1,246.67 c 0.09,0.79 0.13,1.57 0.12,2.34 3.57,-1.24 6.83,-2.35 9.74,-3.32 9.55,-3.18 15.51,-12.29 14.45,-21.95 L 5930,2587.56 c -5.31,-48.35 -22.56,-94.36 -49.82,-134.43"
         id="path1584" />
    </clipPath>
    <linearGradient
       x1="0"
       y1="0"
       x2="1"
       y2="0"
       gradientUnits="userSpaceOnUse"
       gradientTransform="matrix(0,-666.685,-666.685,0,5675.39,2889.45)"
       spreadMethod="pad"
       id="linearGradient1594">
      <stop
         style="stop-opacity:1;stop-color:#23396a"
         offset="0"
         id="stop1588" />
      <stop
         style="stop-opacity:1;stop-color:#23396a"
         offset="0.128986"
         id="stop1590" />
      <stop
         style="stop-opacity:1;stop-color:#25478d"
         offset="1"
         id="stop1592" />
    </linearGradient>
    <clipPath
       clipPathUnits="userSpaceOnUse"
       id="clipPath1608">
      <path
         d="m 5651.08,2345.15 v 216.89 h 41.35 c 7.74,0 13.4,7.32 11.43,14.81 l -20.27,77.49 c -1.32,5.06 0.39,10.39 4.37,13.8 12.09,10.38 19.78,25.75 19.78,42.95 0,31.28 -25.37,56.65 -56.65,56.65 -0.01,0 -0.01,0 -0.01,0 v 209.36 c 76.97,-69.12 181.87,-112.68 237.76,-132.56 l -25.19,-229.42 c -7.03,-64.03 -38.38,-123.1 -88.26,-166.34 l -116.12,-100.69 c -2.95,-2.55 -6.39,-2.94 -8.19,-2.94"
         id="path1606" />
    </clipPath>
    <linearGradient
       x1="0"
       y1="0"
       x2="1"
       y2="0"
       gradientUnits="userSpaceOnUse"
       gradientTransform="matrix(87.4083,0,0,-87.4083,5623.14,2661.13)"
       spreadMethod="pad"
       id="linearGradient1616">
      <stop
         style="stop-opacity:1;stop-color:#cc9627"
         offset="0"
         id="stop1610" />
      <stop
         style="stop-opacity:1;stop-color:#cc9627"
         offset="0.128986"
         id="stop1612" />
      <stop
         style="stop-opacity:1;stop-color:#fab933"
         offset="1"
         id="stop1614" />
    </linearGradient>
    <clipPath
       clipPathUnits="userSpaceOnUse"
       id="clipPath1628">
      <path
         d="m 5692.43,2562.04 h -41.35 v 205.7 c 0,0 0,0 0.01,0 31.28,0 56.65,-25.37 56.65,-56.65 0,-17.2 -7.69,-32.57 -19.78,-42.95 -3.98,-3.41 -5.69,-8.74 -4.37,-13.8 l 20.27,-77.49 c 1.97,-7.49 -3.69,-14.81 -11.43,-14.81"
         id="path1626" />
    </clipPath>
    <linearGradient
       x1="0"
       y1="0"
       x2="1"
       y2="0"
       gradientUnits="userSpaceOnUse"
       gradientTransform="matrix(87.4083,0,0,-87.4083,5623.14,2661.13)"
       spreadMethod="pad"
       id="linearGradient1636">
      <stop
         style="stop-opacity:1;stop-color:#1e1711"
         offset="0"
         id="stop1630" />
      <stop
         style="stop-opacity:1;stop-color:#1e1711"
         offset="0.128986"
         id="stop1632" />
      <stop
         style="stop-opacity:1;stop-color:#281e13"
         offset="1"
         id="stop1634" />
    </linearGradient>
    <linearGradient
       inkscape:collect="always"
       xlink:href="#linearGradient1372"
       id="linearGradient3529"
       gradientUnits="userSpaceOnUse"
       gradientTransform="matrix(0,-457.87,-457.87,0,6106.52,2478.7)"
       x1="0"
       y1="0"
       x2="1"
       y2="0"
       spreadMethod="pad" />
    <linearGradient
       inkscape:collect="always"
       xlink:href="#linearGradient1372"
       id="linearGradient3531"
       gradientUnits="userSpaceOnUse"
       gradientTransform="matrix(0,-457.87,-457.87,0,6106.52,2478.7)"
       x1="0"
       y1="0"
       x2="1"
       y2="0"
       spreadMethod="pad" />
  </defs>
  <g
     inkscape:label="Plast 1"
     inkscape:groupmode="layer"
     id="layer1"
     transform="translate(11.667241,-52.850443)">
    <path
       d="m 20.097612,52.850443 c 13.479639,0 22.985236,7.377289 25.638478,22.960189 2.551641,14.989527 0.593725,39.167508 -27.656366,39.167508 -28.250091,0 -35.141958,-19.457462 -25.8773082,-34.934175 7.14374986,-11.933061 7.77874985,-27.193522 27.8951962,-27.193522"
       style="fill:#b1caec;fill-opacity:1;fill-rule:nonzero;stroke:none;stroke-width:0.0352778"
       id="path1192" />
    <path
       d="m 31.240098,112.68931 c 0.382764,-0.15557 0.755297,-0.31785 1.120775,-0.48789 -0.362655,0.17039 -0.734483,0.33267 -1.120775,0.48789"
       style="fill:#b0e2b5;fill-opacity:1;fill-rule:nonzero;stroke:none;stroke-width:0.0352778"
       id="path1194" />
    <path
       d="m 3.3071545,112.71048 c -0.3764139,-0.12735 -0.7507111,-0.2674 -1.1292417,-0.42757 0.3675945,0.14782 0.746125,0.29105 1.1292417,0.42757"
       style="fill:#b0e2b5;fill-opacity:1;fill-rule:nonzero;stroke:none;stroke-width:0.0352778"
       id="path1200" />
    <path
       d="m 1.283974,61.974335 16.707908,15.607241 c 6.444544,6.0198 16.230952,6.685491 23.431147,1.593497 l 4.358922,-3.082925 7.05e-4,-0.0018 C 43.19609,60.315926 33.657684,52.850443 20.097612,52.850443 c -10.059458,0 -15.2474076,3.815997 -18.813638,9.123892"
       style="fill:#86aadf;fill-opacity:1;fill-rule:nonzero;stroke:none;stroke-width:0.0352778"
       id="path1206" />
    <path
       d="m 11.284518,60.554757 h 0.28291 v -0.877672 h -0.28291 z"
       style="fill:#3864b8;fill-opacity:1;fill-rule:nonzero;stroke:none;stroke-width:0.0352778"
       id="path1292" />
    <path
       d="m 11.284518,62.284779 h 0.28291 v -0.877947 h -0.28291 z"
       style="fill:#3864b8;fill-opacity:1;fill-rule:nonzero;stroke:none;stroke-width:0.0352778"
       id="path1294" />
    <path
       d="m 11.852138,61.122376 h 0.877809 v -0.28291 h -0.877809 z"
       style="fill:#3864b8;fill-opacity:1;fill-rule:nonzero;stroke:none;stroke-width:0.0352778"
       id="path1296" />
    <path
       d="M 10.122115,61.122376 H 11.0002 v -0.28291 h -0.878085 z"
       style="fill:#3864b8;fill-opacity:1;fill-rule:nonzero;stroke:none;stroke-width:0.0352778"
       id="path1298" />
    <path
       d="m 37.998262,85.696876 h 0.267063 v -0.87781 h -0.267063 z"
       style="fill:#ffffff;fill-opacity:1;fill-rule:nonzero;stroke:none;stroke-width:0.0352778"
       id="path1300" />
    <path
       d="m 37.998262,87.426898 h 0.267063 v -0.878085 h -0.267063 z"
       style="fill:#ffffff;fill-opacity:1;fill-rule:nonzero;stroke:none;stroke-width:0.0352778"
       id="path1302" />
    <path
       d="m 38.557768,86.256381 h 0.877672 v -0.26665 h -0.877672 z"
       style="fill:#ffffff;fill-opacity:1;fill-rule:nonzero;stroke:none;stroke-width:0.0352778"
       id="path1304" />
    <path
       d="m 36.828098,86.256381 h 0.877672 v -0.26665 h -0.877672 z"
       style="fill:#ffffff;fill-opacity:1;fill-rule:nonzero;stroke:none;stroke-width:0.0352778"
       id="path1306" />
    <path
       d="M 3.5413989,72.030618 H 3.8080495 V 71.152945 H 3.5413989 Z"
       style="fill:#ffffff;fill-opacity:1;fill-rule:nonzero;stroke:none;stroke-width:0.0352778"
       id="path1308" />
    <path
       d="m 3.5413989,73.760287 h 0.2666506 v -0.87781 H 3.5413989 Z"
       style="fill:#ffffff;fill-opacity:1;fill-rule:nonzero;stroke:none;stroke-width:0.0352778"
       id="path1310" />
    <path
       d="M 4.1009044,72.590123 H 4.9785767 V 72.32306 H 4.1009044 Z"
       style="fill:#ffffff;fill-opacity:1;fill-rule:nonzero;stroke:none;stroke-width:0.0352778"
       id="path1312" />
    <path
       d="M 2.371235,72.590123 H 3.2490449 V 72.32306 H 2.371235 Z"
       style="fill:#ffffff;fill-opacity:1;fill-rule:nonzero;stroke:none;stroke-width:0.0352778"
       id="path1314" />
    <path
       d="M 25.966071,93.662245 H 13.516896 L 8.4460682,114.10572 c 2.1875748,0.42933 4.5635328,0.70943 7.1310498,0.81915 l 4.164542,-11.70094 4.052005,11.3845 c 2.577042,-0.34784 4.882797,-0.93487 6.940903,-1.72332 L 25.966071,93.662245"
       style="fill:#25478e;fill-opacity:1;fill-rule:nonzero;stroke:none;stroke-width:0.0352778"
       id="path1316" />
    <path
       d="m 13.202571,98.819503 -3.9334722,15.423087 0.3806472,0.0967 3.933119,-15.422743 -0.380294,-0.09701"
       style="fill:#3864b8;fill-opacity:1;fill-rule:nonzero;stroke:none;stroke-width:0.0352778"
       id="path1318" />
    <path
       d="m 25.849654,98.916517 3.627967,14.225763 0.380294,-0.097 -3.627614,-14.225767 -0.380647,0.09701"
       style="fill:#3864b8;fill-opacity:1;fill-rule:nonzero;stroke:none;stroke-width:0.0352778"
       id="path1320" />
    <g
       id="g1322"
       transform="matrix(0.03527778,0,0,-0.03527778,-195.68279,183.07942)">
      <g
         id="g1324"
         clip-path="url(#clipPath1328)">
        <path
           d="m 6356.18,2239.53 v 0 l -15.93,64.18 c 0.01,0 0,0 0.01,0 l 15.92,-64.18"
           style="fill:url(#linearGradient1336);fill-opacity:1;fill-rule:nonzero;stroke:none"
           id="path1338" />
      </g>
    </g>
    <g
       id="g1340"
       transform="matrix(0.03527778,0,0,-0.03527778,-195.68279,183.07942)">
      <g
         id="g1342"
         clip-path="url(#clipPath1346)">
        <path
           d="m 5856.87,2239.53 15.92,64.18 c 9.55,1.09 18.86,2.64 27.92,4.58 l -16.32,-63.97 c -8.94,-1.97 -18.12,-3.58 -27.52,-4.79 m 499.31,0 c -9.94,1.28 -19.63,3.01 -29.06,5.13 l -16.31,63.96 c 9.53,-2.1 19.36,-3.76 29.44,-4.91 l 15.92,-64.18 m -459.54,7.74 16.3,63.92 c 121.13,31.48 193.59,132.03 193.59,132.03 0,0 71.86,-99.69 192.04,-131.62 l 16.3,-63.92 c -130.38,34.81 -208.34,142.85 -208.34,142.85 0,0 -78.57,-108.89 -209.89,-143.26"
           style="fill:url(#linearGradient1354);fill-opacity:1;fill-rule:nonzero;stroke:none"
           id="path1356" />
      </g>
    </g>
    <g
       id="g1358"
       transform="matrix(0.03527778,0,0,-0.03527778,-195.68279,183.07942)">
      <g
         id="g1360"
         clip-path="url(#clipPath1364)">
        <path
           d="m 5884.39,2244.32 16.32,63.97 c 4.12,0.89 8.21,1.86 12.22,2.9 l -16.3,-63.92 c -4.03,-1.05 -8.11,-2.04 -12.24,-2.95"
           style="fill:url(#linearGradient3529);fill-opacity:1;fill-rule:nonzero;stroke:none"
           id="path1374" />
      </g>
    </g>
    <g
       id="g1376"
       transform="matrix(0.03527778,0,0,-0.03527778,-195.68279,183.07942)">
      <g
         id="g1378"
         clip-path="url(#clipPath1382)">
        <path
           d="m 6327.12,2244.66 c -4.13,0.94 -8.22,1.94 -12.26,3.02 l -16.3,63.92 c 4.03,-1.07 8.11,-2.07 12.25,-2.98 l 16.31,-63.96"
           style="fill:url(#linearGradient3531);fill-opacity:1;fill-rule:nonzero;stroke:none"
           id="path1392" />
      </g>
    </g>
    <path
       d="m 27.586026,74.62177 -1.080205,5.209117 4.905375,8.291336 -6.110817,5.104342 1.399117,2.413352 7.207955,-4.775552 c 1.121128,-0.74295 1.562806,-2.170642 1.061508,-3.41877 C 33.404743,83.552693 29.985268,75.66317 27.586026,74.62177"
       style="fill:#3864b8;fill-opacity:1;fill-rule:nonzero;stroke:none;stroke-width:0.0352778"
       id="path1394" />
    <g
       id="g1396"
       transform="matrix(0.03527778,0,0,-0.03527778,-195.68279,183.07942)">
      <g
         id="g1398"
         clip-path="url(#clipPath1402)">
        <path
           d="m 6370.59,2804.47 -29.3,49.53 v 0 l 29.3,-49.53 v 0"
           style="fill:url(#linearGradient1410);fill-opacity:1;fill-rule:nonzero;stroke:none"
           id="path1412" />
      </g>
    </g>
    <g
       id="g1414"
       transform="matrix(0.03527778,0,0,-0.03527778,-195.68279,183.07942)">
      <g
         id="g1416"
         clip-path="url(#clipPath1420)">
        <path
           d="m 6341.29,2854 v 0 l -18.63,31.48 v 0 l 18.63,-31.48 m 101.24,68.68 c -2.66,5.11 -5.33,10.16 -8.02,15.15 2.69,-4.99 5.36,-10.05 8.03,-15.15 v 0 m -8.04,15.17 c -0.05,0.1 -0.1,0.19 -0.15,0.28 0.05,-0.09 0.1,-0.19 0.15,-0.28"
           style="fill:url(#linearGradient1428);fill-opacity:1;fill-rule:nonzero;stroke:none"
           id="path1430" />
      </g>
    </g>
    <g
       id="g1432"
       transform="matrix(0.03527778,0,0,-0.03527778,-195.68279,183.07942)">
      <g
         id="g1434"
         clip-path="url(#clipPath1438)">
        <path
           d="m 6370.59,2804.47 -29.3,49.53 -18.63,31.48 6.94,188.59 c 31.49,-14.26 69.07,-69.65 104.75,-135.94 0.05,-0.09 0.1,-0.18 0.15,-0.28 0,0 0.01,-0.01 0.01,-0.02 2.69,-4.99 5.36,-10.04 8.02,-15.15 l -71.94,-118.21"
           style="fill:url(#linearGradient1446);fill-opacity:1;fill-rule:nonzero;stroke:none"
           id="path1448" />
      </g>
    </g>
    <path
       d="M 11.871188,74.62177 C 8.6683182,76.012068 5.0534044,91.340615 5.0534044,91.340615 L 9.4920543,89.235942 12.951746,79.830887 11.871188,74.62177"
       style="fill:#3864b8;fill-opacity:1;fill-rule:nonzero;stroke:none;stroke-width:0.0352778"
       id="path1450" />
    <g
       id="g1452"
       transform="matrix(0.03527778,0,0,-0.03527778,-195.68279,183.07942)">
      <g
         id="g1454"
         clip-path="url(#clipPath1458)">
        <path
           d="m 5890.24,2889.06 c -17.64,6.6 -39.36,15.35 -62.93,26.26 l -20.79,50.36 c 24.77,54.99 51.14,97.28 76.6,108.58 v 0 c 0.05,0.02 0.1,0.04 0.15,0.06 v 0 c 0.05,0.02 0.1,0.05 0.15,0.07 v 0 0 0 l 6.82,-185.33"
           style="fill:url(#linearGradient1466);fill-opacity:1;fill-rule:nonzero;stroke:none"
           id="path1468" />
      </g>
    </g>
    <path
       d="M 26.971134,92.034176 27.611779,74.62177 c 0,0 -4.483806,-0.992716 -7.870119,-0.992716 -3.385961,0 -7.870472,0.992716 -7.870472,0.992716 l 0.640997,17.412406 -1.647472,9.827334 c 5.490986,-0.27588 8.876947,-4.973465 8.876947,-4.973465 0,0 3.386313,4.697585 8.876947,4.973465 l -1.647473,-9.827334"
       style="fill:#25478e;fill-opacity:1;fill-rule:nonzero;stroke:none;stroke-width:0.0352778"
       id="path1470" />
    <path
       d="M 26.971134,92.034176 27.611779,74.62177 c 0,0 -4.483806,-0.992716 -7.870119,-0.992716 -3.385961,0 -7.870472,0.992716 -7.870472,0.992716 l 0.640997,17.412406 -1.647472,9.827334 c 5.490986,-0.27588 8.876947,-4.973465 8.876947,-4.973465 0,0 3.386313,4.697585 8.876947,4.973465 l -1.647473,-9.827334"
       style="fill:#25478e;fill-opacity:1;fill-rule:nonzero;stroke:none;stroke-width:0.0352778"
       id="path1472" />
    <path
       d="m 16.538438,68.499665 -0.414162,-1.521883 c 0,0 -1.016,-0.651934 -1.259416,-1.304572 -0.649111,-1.739195 2.007305,-3.959578 4.750858,-3.485798 2.664178,0.45967 2.776361,1.671814 2.776361,1.671814 0,0 1.362428,0.284692 1.282347,1.695097 -0.08008,1.410053 -1.055158,3.140075 -1.055158,3.140075 l -6.08083,-0.194733"
       style="fill:#040606;fill-opacity:1;fill-rule:nonzero;stroke:none;stroke-width:0.0352778"
       id="path1474" />
    <g
       id="g1476"
       transform="matrix(0.03527778,0,0,-0.03527778,-195.68279,183.07942)">
      <g
         id="g1478"
         clip-path="url(#clipPath1482)">
        <path
           d="m 6156.43,3088.13 -101.75,-2.6 -1.68,109.08 101.77,1.57 1.66,-108.05"
           style="fill:url(#linearGradient1490);fill-opacity:1;fill-rule:nonzero;stroke:none"
           id="path1492" />
      </g>
    </g>
    <path
       d="m 23.130443,67.667815 c -0.329847,-0.03951 -0.584553,0.111125 -0.754239,0.263525 0.01058,-0.293511 0.01164,-0.600428 -0.0035,-0.93098 0,0 -2.95663,-0.05433 -3.686175,-1.973439 -0.50553,1.438275 -1.81363,2.058458 -1.81363,2.058458 -0.0053,0.348897 0.0064,0.672042 0.02822,0.979311 -0.172155,-0.161925 -0.45085,-0.343253 -0.815269,-0.288219 -0.626886,0.09454 0.0695,2.510366 1.088319,1.858786 l 3.53e-4,-3.53e-4 c 0.451203,1.456972 1.377597,2.483908 2.526594,2.465917 1.143353,-0.01729 2.033764,-1.067153 2.442986,-2.523067 1.011414,0.526344 1.606903,-1.835856 0.986367,-1.909939"
       style="fill:#f57c89;fill-opacity:1;fill-rule:nonzero;stroke:none;stroke-width:0.0352778"
       id="path1494" />
    <path
       d="m 19.74166,85.620676 2.299052,-11.847689 c -0.772583,-0.08537 -1.567391,-0.143933 -2.299052,-0.143933 -0.731661,0 -1.52647,0.05856 -2.299053,0.143933 l 2.299053,11.847689"
       style="fill:#3864b8;fill-opacity:1;fill-rule:nonzero;stroke:none;stroke-width:0.0352778"
       id="path1496" />
    <path
       d="m 22.441821,74.368829 2.103261,1.744486 -2.01542,2.998964 1.847145,1.896533 -4.635147,6.76028 -4.635147,-6.76028 1.847497,-1.896533 -2.015772,-2.998964 2.103613,-1.744486 -0.118886,-0.143228 -2.233083,1.852083 2.025297,3.012723 -1.848203,1.897591 4.874684,7.110236 4.874683,-7.110236 -1.848203,-1.897591 2.024945,-3.012723 -2.232378,-1.852083 -0.118886,0.143228"
       style="fill:#ffffff;fill-opacity:1;fill-rule:nonzero;stroke:none;stroke-width:0.0352778"
       id="path1498" />
    <path
       d="m 19.648526,95.639917 h 0.186309 V 87.93391 h -0.186309 z"
       style="fill:#ffffff;fill-opacity:1;fill-rule:nonzero;stroke:none;stroke-width:0.0352778"
       id="path1500" />
    <path
       d="m 21.500257,89.604948 c 0,0.296333 -0.239889,0.536928 -0.536575,0.536928 -0.296686,0 -0.536928,-0.240595 -0.536928,-0.536928 0,-0.296686 0.240242,-0.536928 0.536928,-0.536928 0.296686,0 0.536575,0.240242 0.536575,0.536928"
       style="fill:#ffffff;fill-opacity:1;fill-rule:nonzero;stroke:none;stroke-width:0.0352778"
       id="path1502" />
    <path
       d="m 21.500257,92.68999 c 0,0.296333 -0.239889,0.536575 -0.536575,0.536575 -0.296686,0 -0.536928,-0.240242 -0.536928,-0.536575 0,-0.296687 0.240242,-0.536928 0.536928,-0.536928 0.296686,0 0.536575,0.240241 0.536575,0.536928"
       style="fill:#ffffff;fill-opacity:1;fill-rule:nonzero;stroke:none;stroke-width:0.0352778"
       id="path1504" />
    <path
       d="m 25.412562,91.675753 h 1.745897 c 0.3683,0 0.677334,0.276931 0.717198,0.642762 l 0.277283,2.545644 c 0.04551,0.418747 -0.282575,0.784225 -0.703439,0.784225 l -1.024466,-0.0049 c -0.406048,-0.0018 -0.759531,-0.277989 -0.859367,-0.672042 l -0.66922,-2.632075 c -0.08537,-0.336902 0.168981,-0.663575 0.516114,-0.663575"
       style="fill:#f57c89;fill-opacity:1;fill-rule:nonzero;stroke:none;stroke-width:0.0352778"
       id="path1506" />
    <g
       id="g1508"
       transform="matrix(0.03527778,0,0,-0.03527778,-195.68279,183.07942)">
      <g
         id="g1510"
         clip-path="url(#clipPath1514)">
        <path
           d="m 5698.43,2284.92 c -0.27,12.26 -0.73,25.79 -1.49,39.84 l 106.16,92.05 c 50.86,44.1 85.24,102.73 98.38,166.88 l 0.11,-2.88 -21.41,-127.68 c -14.75,-21.69 -32.45,-41.63 -52.77,-59.26 L 5711.3,2293.19 c -3.95,-3.42 -8.29,-6.17 -12.87,-8.27"
           style="fill:url(#linearGradient1522);fill-opacity:1;fill-rule:nonzero;stroke:none"
           id="path1524" />
      </g>
    </g>
    <g
       id="g1544"
       transform="matrix(0.03527778,0,0,-0.03527778,-195.68279,183.07942)">
      <g
         id="g1546"
         clip-path="url(#clipPath1550)">
        <path
           d="m 5618.97,2310.98 -15.03,13.03 -0.87,2.61 12.1,-10.49 c 0.93,-0.81 1.89,-1.58 2.86,-2.31 l 0.94,-2.84"
           style="fill:url(#linearGradient1558);fill-opacity:1;fill-rule:nonzero;stroke:none"
           id="path1560" />
      </g>
    </g>
    <g
       id="g1562"
       transform="matrix(0.03527778,0,0,-0.03527778,-195.68279,183.07942)">
      <g
         id="g1564"
         clip-path="url(#clipPath1568)">
        <path
           d="m 5537.18,2381.9 -13.81,11.97 c -7.5,6.5 -14.64,13.32 -21.4,20.42 l 34.84,-30.21 c 0.12,-0.73 0.25,-1.45 0.37,-2.18"
           style="fill:url(#linearGradient1576);fill-opacity:1;fill-rule:nonzero;stroke:none"
           id="path1578" />
      </g>
    </g>
    <g
       id="g1580"
       transform="matrix(0.03527778,0,0,-0.03527778,-195.68279,183.07942)">
      <g
         id="g1582"
         clip-path="url(#clipPath1586)">
        <path
           d="m 5880.18,2453.13 21.41,127.68 -0.11,2.88 c 1.81,8.84 3.22,17.78 4.21,26.8 l 27.1,246.67 c 0.09,0.79 0.13,1.57 0.12,2.34 3.57,-1.24 6.83,-2.35 9.74,-3.32 9.55,-3.18 15.51,-12.29 14.45,-21.95 L 5930,2587.56 c -5.31,-48.35 -22.56,-94.36 -49.82,-134.43"
           style="fill:url(#linearGradient1594);fill-opacity:1;fill-rule:nonzero;stroke:none"
           id="path1596" />
      </g>
    </g>
    <path
       d="m 3.1279434,76.519362 c -2.83068887,2.801408 -7.3035582,4.465461 -8.881886,4.991453 -0.3369027,0.112183 -0.5468055,0.433211 -0.5094111,0.774347 l 0.9560278,8.701969 c 0.2885722,2.6289 1.577975,5.062361 3.6191471,6.8326 l 4.0961027,3.551769 c 0.7200195,0.62406 1.8136305,0.62406 2.53365,0 l 4.0961027,-3.551769 c 2.0411724,-1.770239 3.3305744,-4.2037 3.6191474,-6.8326 l 0.956027,-8.701969 c 0.0374,-0.341136 -0.172508,-0.662164 -0.509411,-0.774347 -1.578327,-0.525992 -6.0511967,-2.190045 -8.8818856,-4.991453 -0.3005666,-0.297392 -0.7930444,-0.297392 -1.093611,0"
       style="fill:#f2522d;fill-opacity:1;fill-rule:nonzero;stroke:none;stroke-width:0.0352778"
       id="path1598" />
    <path
       d="m 3.6747489,100.34774 c -0.0635,0 -0.1852083,-0.0138 -0.2892778,-0.10372 L -0.71098434,96.691901 C -2.4706399,95.166489 -3.5758926,93.082631 -3.8235426,90.824148 l -0.8893528,-8.09378 c 1.9713222,-0.701323 5.6723138,-2.238023 8.3876443,-4.676423 2.7153305,2.4384 6.4159691,3.9751 8.3876441,4.676423 l -0.888647,8.093427 c -0.248003,2.258836 -1.3539611,4.342694 -3.1136166,5.868106 l -4.0964555,3.552119 c -0.1040694,0.09 -0.225425,0.10372 -0.288925,0.10372"
       style="fill:#fab933;fill-opacity:1;fill-rule:nonzero;stroke:none;stroke-width:0.0352778"
       id="path1600" />
    <g
       id="g1602"
       transform="matrix(0.03527778,0,0,-0.03527778,-195.68279,183.07942)">
      <g
         id="g1604"
         clip-path="url(#clipPath1608)">
        <path
           d="m 5651.08,2345.15 v 216.89 h 41.35 c 7.74,0 13.4,7.32 11.43,14.81 l -20.27,77.49 c -1.32,5.06 0.39,10.39 4.37,13.8 12.09,10.38 19.78,25.75 19.78,42.95 0,31.28 -25.37,56.65 -56.65,56.65 -0.01,0 -0.01,0 -0.01,0 v 209.36 c 76.97,-69.12 181.87,-112.68 237.76,-132.56 l -25.19,-229.42 c -7.03,-64.03 -38.38,-123.1 -88.26,-166.34 l -116.12,-100.69 c -2.95,-2.55 -6.39,-2.94 -8.19,-2.94"
           style="fill:url(#linearGradient1616);fill-opacity:1;fill-rule:nonzero;stroke:none"
           id="path1618" />
      </g>
    </g>
    <path
       d="M 3.6747489,92.69634 H 2.2350628 c -0.282575,0 -0.4893027,-0.267406 -0.4176889,-0.540809 L 2.5278684,89.440906 C 2.5751406,89.260284 2.5112878,89.071901 2.3701767,88.950192 1.8635878,88.513101 1.5781906,87.828006 1.7069545,87.082234 1.8452434,86.284251 2.4781267,85.633376 3.2732878,85.478859 3.40946,85.452401 3.5435156,85.439701 3.6747489,85.439701 v 7.256639"
       style="fill:#281e13;fill-opacity:1;fill-rule:nonzero;stroke:none;stroke-width:0.0352778"
       id="path1620" />
    <g
       id="g1622"
       transform="matrix(0.03527778,0,0,-0.03527778,-195.68279,183.07942)">
      <g
         id="g1624"
         clip-path="url(#clipPath1628)">
        <path
           d="m 5692.43,2562.04 h -41.35 v 205.7 c 0,0 0,0 0.01,0 31.28,0 56.65,-25.37 56.65,-56.65 0,-17.2 -7.69,-32.57 -19.78,-42.95 -3.98,-3.41 -5.69,-8.74 -4.37,-13.8 l 20.27,-77.49 c 1.97,-7.49 -3.69,-14.81 -11.43,-14.81"
           style="fill:url(#linearGradient1636);fill-opacity:1;fill-rule:nonzero;stroke:none"
           id="path1638" />
      </g>
    </g>
    <path
       d="m 4.8851294,87.438187 c 0,-0.968728 -0.6893277,-1.776236 -1.6044333,-1.959328 -0.9151055,0.183092 -1.604786,0.9906 -1.604786,1.959328 0,0.60713 0.2716388,1.14935 0.6984999,1.515533 0.1400528,0.119945 0.2003778,0.307975 0.1534584,0.486128 l -0.7150806,2.734028 c -0.069144,0.26423 0.130175,0.522464 0.403225,0.522464 h 0.6702778 0.7884583 0.8106833 c 0.2021417,0 0.3496028,-0.190853 0.29845,-0.386292 L 4.0356406,89.449726 c -0.047978,-0.18415 0.014464,-0.377825 0.15875,-0.502709 0.4226277,-0.36583 0.6907388,-0.90558 0.6907388,-1.50883"
       style="fill:#040606;fill-opacity:1;fill-rule:nonzero;stroke:none;stroke-width:0.0352778"
       id="path1640" />
  </g>
</svg>
